<svg width="18" height="18" fill="none" xmlns="http://www.w3.org/2000/svg"><path d="M13.887.5H4.114A3.58 3.58 0 00.5 4.042v2.125a.708.708 0 001.417 0V4.042a2.163 2.163 0 012.196-2.125h9.774a2.163 2.163 0 012.196 2.125v9.917a2.163 2.163 0 01-2.195 2.125H4.112a2.163 2.163 0 01-2.196-2.125v-2.125a.708.708 0 10-1.417 0v2.125A3.58 3.58 0 004.112 17.5h9.775a3.58 3.58 0 003.613-3.54V4.042A3.58 3.58 0 0013.887.5z" fill="#1D202C"/><path d="M2.625 9a.708.708 0 00.708.708l9.342-.02-3.062 3.061a.708.708 0 101.001 1.002l3.249-3.249a2.125 2.125 0 000-3.004l-3.247-3.249a.708.708 0 00-1.002 1.002l3.019 3.02-9.3.02a.708.708 0 00-.708.71z" fill="#1D202C"/></svg>