<svg width="19" height="14" fill="none" xmlns="http://www.w3.org/2000/svg"><path fill-rule="evenodd" clip-rule="evenodd" d="M4.969.25H9.53c.674 0 1.224 0 1.672.037.463.037.882.118 1.273.317a3.25 3.25 0 011.42 1.42c.199.391.28.81.317 1.273.037.447.037.998.037 1.672v.054l1.769-1.77c.16-.16.315-.314.449-.426.121-.102.361-.292.69-.317.373-.03.737.12.98.405.214.251.25.555.263.712.016.175.016.393.016.62V9.42c0 .227 0 .445-.016.62-.014.157-.05.46-.264.712a1.166 1.166 0 01-.979.405c-.329-.026-.569-.216-.69-.317-.134-.112-.289-.267-.45-.427L14.25 8.644v.054c0 .673 0 1.224-.037 1.672-.037.463-.118.881-.317 1.272a3.25 3.25 0 01-1.42 1.42c-.391.2-.81.28-1.273.318-.447.037-.998.037-1.672.037H4.97c-.674 0-1.225 0-1.672-.037-.463-.038-.882-.119-1.272-.318a3.25 3.25 0 01-1.42-1.42c-.2-.39-.28-.809-.318-1.272C.25 9.922.25 9.37.25 8.698v-3.73c0-.673 0-1.224.037-1.671.037-.463.118-.882.317-1.272a3.25 3.25 0 011.42-1.42c.391-.2.81-.28 1.273-.318C3.744.25 4.295.25 4.969.25zM12.75 5c0-.712 0-1.202-.032-1.58-.03-.371-.085-.57-.159-.714a1.75 1.75 0 00-.764-.765c-.145-.074-.344-.13-.714-.16-.38-.03-.869-.031-1.581-.031H5c-.712 0-1.202 0-1.58.032-.371.03-.57.085-.714.159a1.75 1.75 0 00-.765.765c-.074.144-.13.343-.16.713-.03.38-.031.869-.031 1.581v3.667c0 .712 0 1.201.032 1.58.03.371.085.57.159.714.168.33.435.597.765.765.144.073.343.129.713.16.38.03.869.03 1.581.03h4.5c.712 0 1.202 0 1.58-.03.371-.031.57-.087.714-.16a1.75 1.75 0 00.765-.765c.074-.144.13-.343.16-.713.03-.38.031-.869.031-1.581V5zm1.81 1.833l2.357 2.356V4.477L14.56 6.833z" fill="#fff"/></svg>