<svg width="231" height="49" viewBox="0 0 231 49" fill="none" xmlns="http://www.w3.org/2000/svg">
<path d="M229 18.1846C212.641 12.222 194.958 9.71703 177.747 7.60797C149.652 4.16528 121.498 2.39925 93.1995 2.05915C71.3309 1.79633 49.1828 2.25373 27.6774 6.67014C23.3254 7.56387 -4.73463 13.2002 3.50619 22.8216C7.20426 27.1393 13.3525 29.7187 18.4507 31.705C31.5263 36.7991 45.5857 39.4653 59.4118 41.5001C80.2302 44.5638 101.289 45.9637 122.309 46.606C142.885 47.2348 163.757 47.4897 184.166 44.3657C191.486 43.2451 228.723 37.6981 218.344 22.1964C213.444 14.8786 203.685 10.5603 195.784 7.66007C187.005 4.43742 178.255 3.58169 169.118 2.24151" stroke="#B9FF66" stroke-width="3" stroke-linecap="round"/>
</svg>
