<svg width="71" height="40" viewBox="0 0 71 40" fill="none" xmlns="http://www.w3.org/2000/svg">
<g clip-path="url(#clip0_301_106)">
<path d="M5.71378 6.43108C6.46166 2.69168 9.73905 0 13.5525 0C19.6051 0 28.6658 0 35.5 0C42.3342 0 51.3949 0 57.4475 0C61.2609 0 64.5383 2.69168 65.2862 6.43107L70.0862 30.4311C71.0763 35.3814 67.2964 40 62.2481 40C54.5266 40 43.7118 40 35.5 40C27.2882 40 16.4734 40 8.75194 40C3.70357 40 -0.0762812 35.3814 0.913786 30.4311L5.71378 6.43108Z" fill="#0042FF"/>
<mask id="mask0_301_106" style="mask-type:alpha" maskUnits="userSpaceOnUse" x="0" y="0" width="71" height="40">
<path d="M5.71378 6.43108C6.46166 2.69168 9.73905 0 13.5525 0C19.6051 0 28.6658 0 35.5 0C42.3342 0 51.3949 0 57.4475 0C61.2609 0 64.5383 2.69168 65.2862 6.43107L70.0862 30.4311C71.0763 35.3814 67.2964 40 62.2481 40C54.5266 40 43.7118 40 35.5 40C27.2882 40 16.4734 40 8.75194 40C3.70357 40 -0.0762812 35.3814 0.913786 30.4311L5.71378 6.43108Z" fill="#0042FF"/>
</mask>
<g mask="url(#mask0_301_106)">
<path d="M20.0978 55.798C13.6758 55.798 8.71684 53.974 5.22084 50.326C1.76284 46.678 0.0338399 40.845 0.0338399 32.827C0.0338399 24.809 1.76284 18.976 5.22084 15.328C8.71684 11.68 13.6758 9.856 20.0978 9.856C26.5198 9.856 31.4598 11.68 34.9178 15.328C38.4138 18.976 40.1618 24.809 40.1618 32.827C40.1618 40.237 38.5468 45.918 35.3168 49.87C32.1248 53.822 27.0518 55.798 20.0978 55.798ZM20.0978 45.652C22.6818 45.652 23.9738 44.246 23.9738 41.434V24.22C23.9738 21.408 22.6818 20.002 20.0978 20.002C17.5138 20.002 16.2218 21.408 16.2218 24.22V41.434C16.2218 44.246 17.5138 45.652 20.0978 45.652ZM43.4919 55V45.652H48.9639V20.002H41.7819V13.561L54.4359 10.654H64.0119V45.652H68.7999V55H43.4919Z" fill="url(#paint0_linear_301_106)"/>
</g>
</g>
<defs>
<linearGradient id="paint0_linear_301_106" x1="35" y1="10" x2="35" y2="57" gradientUnits="userSpaceOnUse">
<stop stop-color="white"/>
<stop offset="1" stop-color="white" stop-opacity="0"/>
</linearGradient>
<clipPath id="clip0_301_106">
<rect width="71" height="40" fill="white"/>
</clipPath>
</defs>
</svg>
