<svg width="71" height="40" viewBox="0 0 71 40" fill="none" xmlns="http://www.w3.org/2000/svg">
<g clip-path="url(#clip0_302_106)">
<path d="M5.71378 6.43108C6.46166 2.69168 9.73905 0 13.5525 0C19.6051 0 28.6658 0 35.5 0C42.3342 0 51.3949 0 57.4475 0C61.2609 0 64.5383 2.69168 65.2862 6.43107L70.0862 30.4311C71.0763 35.3814 67.2964 40 62.2481 40C54.5266 40 43.7118 40 35.5 40C27.2882 40 16.4734 40 8.75194 40C3.70357 40 -0.0762812 35.3814 0.913786 30.4311L5.71378 6.43108Z" fill="#C67EFF"/>
<mask id="mask0_302_106" style="mask-type:alpha" maskUnits="userSpaceOnUse" x="0" y="0" width="71" height="40">
<path d="M5.71378 6.43108C6.46166 2.69168 9.73905 0 13.5525 0C19.6051 0 28.6658 0 35.5 0C42.3342 0 51.3949 0 57.4475 0C61.2609 0 64.5383 2.69168 65.2862 6.43107L70.0862 30.4311C71.0763 35.3814 67.2964 40 62.2481 40C54.5266 40 43.7118 40 35.5 40C27.2882 40 16.4734 40 8.75194 40C3.70357 40 -0.0762812 35.3814 0.913786 30.4311L5.71378 6.43108Z" fill="#0042FF"/>
</mask>
<g mask="url(#mask0_302_106)">
<path d="M17.2311 55.798C10.8091 55.798 5.85014 53.974 2.35414 50.326C-1.10386 46.678 -2.83286 40.845 -2.83286 32.827C-2.83286 24.809 -1.10386 18.976 2.35414 15.328C5.85014 11.68 10.8091 9.856 17.2311 9.856C23.6531 9.856 28.5931 11.68 32.0511 15.328C35.5471 18.976 37.2951 24.809 37.2951 32.827C37.2951 40.237 35.6801 45.918 32.4501 49.87C29.2581 53.822 24.1851 55.798 17.2311 55.798ZM17.2311 45.652C19.8151 45.652 21.1071 44.246 21.1071 41.434V24.22C21.1071 21.408 19.8151 20.002 17.2311 20.002C14.6471 20.002 13.3551 21.408 13.3551 24.22V41.434C13.3551 44.246 14.6471 45.652 17.2311 45.652ZM65.8192 32.371C66.9972 32.675 68.1182 33.302 69.1822 34.252C70.2842 35.164 71.1772 36.323 71.8612 37.729C72.5832 39.135 72.9442 40.693 72.9442 42.403C72.9442 46.583 71.4432 49.87 68.4412 52.264C65.4772 54.62 61.0692 55.798 55.2172 55.798C52.4432 55.798 49.6692 55.494 46.8952 54.886C44.1212 54.24 41.6512 53.461 39.4852 52.549V40.408C41.8412 41.434 44.2732 42.27 46.7812 42.916C49.3272 43.562 51.7402 43.885 54.0202 43.885C55.6162 43.885 56.7752 43.638 57.4972 43.144C58.2572 42.65 58.6372 41.833 58.6372 40.693C58.6372 38.489 57.3072 37.387 54.6472 37.387H50.5432V28.039H53.7352C56.2432 28.039 57.4972 26.975 57.4972 24.847C57.4972 22.795 56.2432 21.769 53.7352 21.769C51.9112 21.769 50.0112 22.206 48.0352 23.08C46.0592 23.916 44.1402 25.018 42.2782 26.386L38.9152 14.245C41.2332 13.029 43.8742 12.003 46.8382 11.167C49.8022 10.293 52.7852 9.856 55.7872 9.856C61.0312 9.856 65.0592 10.958 67.8712 13.162C70.6832 15.366 72.0892 18.482 72.0892 22.51C72.0892 25.018 71.5002 27.089 70.3222 28.723C69.1442 30.319 67.6432 31.535 65.8192 32.371Z" fill="url(#paint0_linear_302_106)"/>
</g>
</g>
<defs>
<linearGradient id="paint0_linear_302_106" x1="35" y1="10" x2="35" y2="57" gradientUnits="userSpaceOnUse">
<stop stop-color="white"/>
<stop offset="1" stop-color="white" stop-opacity="0"/>
</linearGradient>
<clipPath id="clip0_302_106">
<rect width="71" height="40" fill="white"/>
</clipPath>
</defs>
</svg>
