<svg width="71" height="40" viewBox="0 0 71 40" fill="none" xmlns="http://www.w3.org/2000/svg">
<g clip-path="url(#clip0_302_107)">
<path d="M5.71378 6.43108C6.46166 2.69168 9.73905 0 13.5525 0C19.6051 0 28.6658 0 35.5 0C42.3342 0 51.3949 0 57.4475 0C61.2609 0 64.5383 2.69168 65.2862 6.43107L70.0862 30.4311C71.0763 35.3814 67.2964 40 62.2481 40C54.5266 40 43.7118 40 35.5 40C27.2882 40 16.4734 40 8.75194 40C3.70357 40 -0.0762812 35.3814 0.913786 30.4311L5.71378 6.43108Z" fill="#FFA34F"/>
<mask id="mask0_302_107" style="mask-type:alpha" maskUnits="userSpaceOnUse" x="0" y="0" width="71" height="40">
<path d="M5.71378 6.43108C6.46166 2.69168 9.73905 0 13.5525 0C19.6051 0 28.6658 0 35.5 0C42.3342 0 51.3949 0 57.4475 0C61.2609 0 64.5383 2.69168 65.2862 6.43107L70.0862 30.4311C71.0763 35.3814 67.2964 40 62.2481 40C54.5266 40 43.7118 40 35.5 40C27.2882 40 16.4734 40 8.75194 40C3.70357 40 -0.0762812 35.3814 0.913786 30.4311L5.71378 6.43108Z" fill="#0042FF"/>
</mask>
<g mask="url(#mask0_302_107)">
<path d="M15.1994 55.798C8.7774 55.798 3.8184 53.974 0.322403 50.326C-3.1356 46.678 -4.8646 40.845 -4.8646 32.827C-4.8646 24.809 -3.1356 18.976 0.322403 15.328C3.8184 11.68 8.7774 9.856 15.1994 9.856C21.6214 9.856 26.5614 11.68 30.0194 15.328C33.5154 18.976 35.2634 24.809 35.2634 32.827C35.2634 40.237 33.6484 45.918 30.4184 49.87C27.2264 53.822 22.1534 55.798 15.1994 55.798ZM15.1994 45.652C17.7834 45.652 19.0754 44.246 19.0754 41.434V24.22C19.0754 21.408 17.7834 20.002 15.1994 20.002C12.6154 20.002 11.3234 21.408 11.3234 24.22V41.434C11.3234 44.246 12.6154 45.652 15.1994 45.652ZM55.6365 55V47.875H37.1114V38.527L56.7764 10.654H70.6845V39.211H74.6175V47.875H70.6845V55H55.6365ZM47.6564 39.211H55.6365V27.982L47.6564 39.211Z" fill="url(#paint0_linear_302_107)"/>
</g>
</g>
<defs>
<linearGradient id="paint0_linear_302_107" x1="35" y1="10" x2="35" y2="57" gradientUnits="userSpaceOnUse">
<stop stop-color="white"/>
<stop offset="1" stop-color="white" stop-opacity="0"/>
</linearGradient>
<clipPath id="clip0_302_107">
<rect width="71" height="40" fill="white"/>
</clipPath>
</defs>
</svg>
