<svg width="176" height="49" viewBox="0 0 176 49" fill="none" xmlns="http://www.w3.org/2000/svg">
<path d="M174.142 17.0614C161.653 11.3604 148.222 9.10823 135.155 7.2427C113.825 4.19752 92.4792 2.81701 71.0482 2.85348C54.4869 2.88166 37.7266 3.62826 21.5213 8.29522C18.2419 9.23964 -2.90479 15.2038 3.50101 24.643C6.37561 28.8789 11.0751 31.3574 14.9694 33.2612C24.9572 38.1437 35.6477 40.6038 46.1507 42.4403C61.9654 45.2056 77.9335 46.3165 93.8586 46.6761C109.447 47.0282 125.255 47.0054 140.652 43.6354C146.175 42.4267 174.27 36.4298 166.144 21.1835C162.308 13.9862 154.844 9.82975 148.812 7.05603C142.11 3.97395 135.47 3.24039 128.529 2.03116" stroke="#B9FF66" stroke-width="3" stroke-linecap="round"/>
</svg>
