<svg width="128" height="92" viewBox="0 0 128 92" fill="none" xmlns="http://www.w3.org/2000/svg">
<path opacity="0.3" d="M128 53.3336C128 52.9443 127.957 52.5561 127.872 52.1763L120.939 20.8804C119.65 14.9403 116.359 9.62378 111.617 5.8222C106.874 2.02061 100.969 -0.0348606 94.8907 0.000447406H33.1093C27.035 -0.0299541 21.1346 2.02776 16.3964 5.82894C11.6583 9.63012 8.37012 14.9439 7.08267 20.8804L0.128007 52.1763C0.0427172 52.5561 -0.000211519 52.9443 7.30345e-06 53.3336V58.6669C-0.00429567 63.8594 1.89292 68.8737 5.33334 72.7629V101.333C5.34181 108.403 8.15404 115.181 13.1532 120.18C18.1523 125.179 24.9302 127.992 32 128H96C103.07 127.992 109.848 125.179 114.847 120.18C119.846 115.181 122.658 108.403 122.667 101.333V72.7629C126.107 68.8737 128.004 63.8594 128 58.6669V53.3336ZM10.6667 53.9149L17.4933 23.195C18.2669 19.6337 20.2401 16.4461 23.0827 14.1656C25.9254 11.8851 29.465 10.65 33.1093 10.6671H37.3333V26.667C37.3333 28.0815 37.8952 29.4381 38.8954 30.4382C39.8956 31.4384 41.2522 32.0003 42.6667 32.0003C44.0812 32.0003 45.4377 31.4384 46.4379 30.4382C47.4381 29.4381 48 28.0815 48 26.667V10.6671H80V26.667C80 28.0815 80.5619 29.4381 81.5621 30.4382C82.5623 31.4384 83.9189 32.0003 85.3333 32.0003C86.7478 32.0003 88.1044 31.4384 89.1046 30.4382C90.1048 29.4381 90.6667 28.0815 90.6667 26.667V10.6671H94.8907C98.535 10.65 102.075 11.8851 104.917 14.1656C107.76 16.4461 109.733 19.6337 110.507 23.195L117.333 53.9149V58.6669C117.333 61.4959 116.21 64.209 114.209 66.2094C112.209 68.2097 109.496 69.3335 106.667 69.3335H101.333C98.5044 69.3335 95.7913 68.2097 93.7909 66.2094C91.7905 64.209 90.6667 61.4959 90.6667 58.6669C90.6667 57.2524 90.1048 55.8959 89.1046 54.8957C88.1044 53.8955 86.7478 53.3336 85.3333 53.3336C83.9189 53.3336 82.5623 53.8955 81.5621 54.8957C80.5619 55.8959 80 57.2524 80 58.6669C80 61.4959 78.8762 64.209 76.8758 66.2094C74.8754 68.2097 72.1623 69.3335 69.3333 69.3335H58.6667C55.8377 69.3335 53.1246 68.2097 51.1242 66.2094C49.1238 64.209 48 61.4959 48 58.6669C48 57.2524 47.4381 55.8959 46.4379 54.8957C45.4377 53.8955 44.0812 53.3336 42.6667 53.3336C41.2522 53.3336 39.8956 53.8955 38.8954 54.8957C37.8952 55.8959 37.3333 57.2524 37.3333 58.6669C37.3333 61.4959 36.2095 64.209 34.2091 66.2094C32.2088 68.2097 29.4956 69.3335 26.6667 69.3335H21.3333C18.5044 69.3335 15.7913 68.2097 13.7909 66.2094C11.7905 64.209 10.6667 61.4959 10.6667 58.6669V53.9149ZM96 117.333H32C27.7565 117.333 23.6869 115.648 20.6863 112.647C17.6857 109.647 16 105.577 16 101.333V79.3228C17.7419 79.7739 19.534 80.0015 21.3333 80.0002H26.6667C29.695 80.0018 32.6888 79.357 35.448 78.1089C38.2072 76.8608 40.6683 75.0382 42.6667 72.7629C44.6651 75.0382 47.1261 76.8608 49.8853 78.1089C52.6445 79.357 55.6383 80.0018 58.6667 80.0002H69.3333C72.3617 80.0018 75.3555 79.357 78.1147 78.1089C80.8739 76.8608 83.3349 75.0382 85.3333 72.7629C87.3317 75.0382 89.7928 76.8608 92.552 78.1089C95.3112 79.357 98.305 80.0018 101.333 80.0002H106.667C108.466 80.0015 110.258 79.7739 112 79.3228V101.333C112 105.577 110.314 109.647 107.314 112.647C104.313 115.648 100.243 117.333 96 117.333Z" fill="#373D52"/>
</svg>
