<svg width="128" height="81" viewBox="0 0 128 81" fill="none" xmlns="http://www.w3.org/2000/svg">
<path opacity="0.3" d="M5.85066 12.8444C9.45599 11.1331 13.7067 11.4926 16.928 13.7962C17.136 13.943 17.3333 14.1101 17.5147 14.2822L26.8853 23.2586C28.0107 10.2725 39.3707 1.69221e-06 53.3333 1.69221e-06H101.333C116.037 -0.00506112 128 11.3508 128 25.309V55.6859C128 69.6441 116.037 81 101.333 81H53.3333C39.312 81 27.904 70.6364 26.8693 57.5743L17.504 66.4545C17.3227 66.6216 17.136 66.7735 16.9333 66.9203C15.056 68.2569 12.8373 68.9353 10.5973 68.9353C8.98133 68.9353 7.36533 68.586 5.85066 67.8671C2.24 66.1558 0 62.708 0 58.8856V21.8359C0 18.0034 2.24 14.5607 5.85066 12.8494V12.8444ZM53.3333 70.8744H101.333C110.155 70.8744 117.333 64.0598 117.333 55.6859V25.309C117.333 16.9351 110.155 10.1206 101.333 10.1206H53.3333C44.512 10.1206 37.3333 16.9351 37.3333 25.309V55.6859C37.3333 64.0598 44.512 70.8744 53.3333 70.8744ZM26.6667 43.4491V37.4294L10.6667 22.0992L10.5333 58.7439L26.6667 43.444V43.4491Z" fill="#373D52"/>
</svg>
