<svg width="17" height="18" viewBox="0 0 17 18" fill="none" xmlns="http://www.w3.org/2000/svg">
<path d="M13.3875 0.500144H3.6125C2.66406 0.491645 1.751 0.859798 1.07372 1.5238C0.396441 2.1878 0.0102816 3.09339 0 4.04181V6.16681C0 6.35467 0.0746278 6.53484 0.207466 6.66768C0.340304 6.80052 0.520472 6.87514 0.708333 6.87514C0.896195 6.87514 1.07636 6.80052 1.2092 6.66768C1.34204 6.53484 1.41667 6.35467 1.41667 6.16681V4.04181C1.42673 3.46905 1.66356 2.92367 2.07521 2.52529C2.48686 2.12692 3.03972 1.90809 3.6125 1.91681H13.3875C13.9603 1.90809 14.5131 2.12692 14.9248 2.52529C15.3364 2.92367 15.5733 3.46905 15.5833 4.04181V13.9585C15.5733 14.5312 15.3364 15.0766 14.9248 15.475C14.5131 15.8734 13.9603 16.0922 13.3875 16.0835H3.6125C3.03972 16.0922 2.48686 15.8734 2.07521 15.475C1.66356 15.0766 1.42673 14.5312 1.41667 13.9585V11.8335C1.41667 11.6456 1.34204 11.4654 1.2092 11.3326C1.07636 11.1998 0.896195 11.1251 0.708333 11.1251C0.520472 11.1251 0.340304 11.1998 0.207466 11.3326C0.0746278 11.4654 0 11.6456 0 11.8335V13.9585C0.0102816 14.9069 0.396441 15.8125 1.07372 16.4765C1.751 17.1405 2.66406 17.5086 3.6125 17.5001H13.3875C14.3359 17.5086 15.249 17.1405 15.9263 16.4765C16.6036 15.8125 16.9897 14.9069 17 13.9585V4.04181C16.9897 3.09339 16.6036 2.1878 15.9263 1.5238C15.249 0.859798 14.3359 0.491645 13.3875 0.500144Z" fill="#1D202C"/>
<path d="M2.125 9.00006C2.125 9.18792 2.19963 9.36809 2.33247 9.50092C2.4653 9.63376 2.64547 9.70839 2.83333 9.70839L12.1748 9.68714L9.11271 12.7493C9.04505 12.8146 8.99109 12.8928 8.95397 12.9792C8.91685 13.0656 8.89731 13.1586 8.89649 13.2526C8.89567 13.3467 8.91359 13.4399 8.94921 13.527C8.98483 13.614 9.03742 13.6931 9.10393 13.7596C9.17044 13.8261 9.24952 13.8787 9.33657 13.9143C9.42362 13.95 9.5169 13.9679 9.61095 13.9671C9.705 13.9663 9.79795 13.9467 9.88437 13.9096C9.97079 13.8725 10.0489 13.8185 10.1143 13.7508L13.3627 10.5024C13.7611 10.1039 13.9849 9.56353 13.9849 9.00006C13.9849 8.43658 13.7611 7.89618 13.3627 7.49768L10.1157 4.24927C9.98211 4.12024 9.80319 4.04884 9.61747 4.05046C9.43174 4.05207 9.25408 4.12656 9.12275 4.25789C8.99142 4.38923 8.91693 4.56688 8.91531 4.75261C8.9137 4.93833 8.9851 5.11726 9.11413 5.25085L12.133 8.27047L2.83333 8.29172C2.64547 8.29172 2.4653 8.36635 2.33247 8.49919C2.19963 8.63203 2.125 8.8122 2.125 9.00006Z" fill="#1D202C"/>
</svg>
