<svg width="19" height="14" viewBox="0 0 19 14" fill="none" xmlns="http://www.w3.org/2000/svg">
<path fill-rule="evenodd" clip-rule="evenodd" d="M4.71858 2.70082e-07H9.28142C9.9548 -8.4918e-06 10.5055 -1.56462e-05 10.9531 0.0365518C11.4163 0.0744017 11.8347 0.155137 12.2255 0.354229C12.837 0.665818 13.3342 1.163 13.6458 1.77453C13.8449 2.16527 13.9256 2.58367 13.9635 3.04693C14 3.4945 14 4.04522 14 4.71861V4.77267L15.7688 3.00386C15.9294 2.84321 16.0836 2.68901 16.2179 2.57656C16.339 2.47522 16.5793 2.28542 16.9085 2.25952C17.2808 2.23022 17.6446 2.38092 17.8871 2.6649C18.1016 2.91595 18.1373 3.22013 18.1513 3.37738C18.1667 3.55189 18.1667 3.76997 18.1667 3.99716V9.16951C18.1667 9.3967 18.1667 9.61478 18.1513 9.78929C18.1373 9.94654 18.1016 10.2507 17.8871 10.5018C17.6446 10.7857 17.2808 10.9365 16.9085 10.9071C16.5793 10.8812 16.339 10.6915 16.2179 10.5901C16.0836 10.4776 15.9294 10.3234 15.7688 10.1628L14 8.39399V8.44806C14 9.12145 14 9.67216 13.9635 10.1197C13.9256 10.583 13.8449 11.0014 13.6458 11.3921C13.3342 12.0037 12.837 12.5008 12.2255 12.8124C11.8347 13.0115 11.4163 13.0923 10.9531 13.1301C10.5055 13.1667 9.95481 13.1667 9.28144 13.1667H4.71856C4.04519 13.1667 3.49449 13.1667 3.04693 13.1301C2.58367 13.0923 2.16527 13.0115 1.77453 12.8124C1.163 12.5008 0.665818 12.0037 0.354229 11.3921C0.155137 11.0014 0.0744017 10.583 0.0365518 10.1197C-1.56462e-05 9.67217 -8.4918e-06 9.12146 2.70082e-07 8.44809V4.71858C-8.4918e-06 4.0452 -1.56462e-05 3.4945 0.0365518 3.04693C0.0744017 2.58367 0.155137 2.16527 0.354229 1.77453C0.665818 1.163 1.163 0.665818 1.77453 0.354229C2.16527 0.155137 2.58367 0.0744017 3.04693 0.0365518C3.4945 -1.56462e-05 4.0452 -8.4918e-06 4.71858 2.70082e-07ZM12.5 4.75C12.5 4.03756 12.4994 3.54833 12.4684 3.16908C12.4382 2.79858 12.3827 2.59956 12.3093 2.45552C12.1415 2.12623 11.8738 1.85852 11.5445 1.69074C11.4004 1.61735 11.2014 1.56184 10.8309 1.53157C10.4517 1.50058 9.96244 1.5 9.25 1.5H4.75C4.03756 1.5 3.54833 1.50058 3.16908 1.53157C2.79858 1.56184 2.59956 1.61735 2.45552 1.69074C2.12623 1.85852 1.85852 2.12623 1.69074 2.45552C1.61735 2.59956 1.56184 2.79858 1.53157 3.16908C1.50058 3.54833 1.5 4.03756 1.5 4.75V8.41667C1.5 9.12911 1.50058 9.61833 1.53157 9.99759C1.56184 10.3681 1.61735 10.5671 1.69074 10.7112C1.85852 11.0404 2.12623 11.3082 2.45552 11.4759C2.59956 11.5493 2.79858 11.6048 3.16908 11.6351C3.54833 11.6661 4.03756 11.6667 4.75 11.6667H9.25C9.96244 11.6667 10.4517 11.6661 10.8309 11.6351C11.2014 11.6048 11.4004 11.5493 11.5445 11.4759C11.8738 11.3082 12.1415 11.0404 12.3093 10.7112C12.3827 10.5671 12.4382 10.3681 12.4684 9.99759C12.4994 9.61833 12.5 9.12911 12.5 8.41667V4.75ZM14.3107 6.58333L16.6667 8.93934V4.22733L14.3107 6.58333Z" fill="white"/>
</svg>
