<?xml version="1.0" encoding="utf-8"?><svg viewBox="0 0 26 27" xmlns="http://www.w3.org/2000/svg" xmlns:xlink="http://www.w3.org/1999/xlink"><style>:root>svg{display:none}:root>svg:target{display:block}</style><svg viewBox="0 0 26 18" id="burger-icon" xmlns="http://www.w3.org/2000/svg"><path d="M1.75 9h15m-15-7.5h22.5m-22.5 15h22.5" stroke="#fff" stroke-width="2" stroke-linecap="round" stroke-linejoin="round"/></svg><svg viewBox="0 0 26 27" id="clip-icon" xmlns="http://www.w3.org/2000/svg"><path d="m13.767 20.394-1.532 1.532a5.417 5.417 0 1 1-7.66-7.66l1.531-1.532m13.789 1.532 1.532-1.532a5.417 5.417 0 0 0-7.66-7.66l-1.532 1.532M9.209 17.292l7.583-7.584" stroke="#B9FF66" stroke-width="2.2" stroke-linecap="round" stroke-linejoin="round"/></svg><svg viewBox="0 0 14 14" id="fat-close-icon" xmlns="http://www.w3.org/2000/svg"><path fill-rule="evenodd" clip-rule="evenodd" d="M.293.293a1 1 0 0 1 1.414 0L7 5.586 12.293.293a1 1 0 1 1 1.414 1.414L8.414 7l5.293 5.293a1 1 0 0 1-1.414 1.414L7 8.414l-5.293 5.293a1 1 0 0 1-1.414-1.414L5.586 7 .293 1.707a1 1 0 0 1 0-1.414Z"/></svg><svg viewBox="0 0 17 18" id="logout-icon" xmlns="http://www.w3.org/2000/svg"><path d="M13.387.5H3.614A3.58 3.58 0 0 0 0 4.042v2.125a.708.708 0 0 0 1.417 0V4.042a2.163 2.163 0 0 1 2.196-2.125h9.774a2.163 2.163 0 0 1 2.196 2.125v9.917a2.163 2.163 0 0 1-2.196 2.125H3.614a2.163 2.163 0 0 1-2.196-2.125v-2.125a.708.708 0 1 0-1.417 0v2.125A3.58 3.58 0 0 0 3.612 17.5h9.775A3.58 3.58 0 0 0 17 13.96V4.042A3.58 3.58 0 0 0 13.387.5Z"/><path d="M2.125 9a.708.708 0 0 0 .708.708l9.342-.02-3.062 3.061a.708.708 0 1 0 1.001 1.002l3.249-3.249a2.125 2.125 0 0 0 0-3.004l-3.247-3.249a.708.708 0 0 0-1.002 1.002l3.019 3.02-9.3.02a.708.708 0 0 0-.708.71Z"/></svg><svg viewBox="0 0 16 22" id="mouse-icon" xmlns="http://www.w3.org/2000/svg"><path fill-rule="evenodd" clip-rule="evenodd" d="M0 8a8 8 0 1 1 16 0v6a8 8 0 1 1-16 0V8Zm8-6a6 6 0 0 0-6 6v6a6 6 0 0 0 12 0V8a6 6 0 0 0-6-6Zm0 2a1 1 0 0 1 1 1v3a1 1 0 0 1-2 0V5a1 1 0 0 1 1-1Z"/></svg><svg viewBox="0 0 19 16" id="partners-icon" xmlns="http://www.w3.org/2000/svg"><path fill-rule="evenodd" clip-rule="evenodd" d="M7.25 1.75a3 3 0 1 0 0 6 3 3 0 0 0 0-6Zm-4.5 3a4.5 4.5 0 1 1 9 0 4.5 4.5 0 0 1-9 0Zm9.245-3.694a.75.75 0 0 1 1.006-.338 4.5 4.5 0 0 1 0 8.064.75.75 0 1 1-.668-1.343 3 3 0 0 0 0-5.378.75.75 0 0 1-.338-1.005ZM7.25 12.583c-2.147 0-4.147 1.121-5.66 3.047a.75.75 0 0 1-1.18-.927c1.731-2.203 4.135-3.62 6.84-3.62s5.109 1.417 6.84 3.62a.75.75 0 0 1-1.18.927c-1.513-1.926-3.513-3.047-5.66-3.047Zm6.4-.42a.75.75 0 0 1 .993-.374c1.384.626 2.61 1.638 3.613 2.914a.75.75 0 1 1-1.179.927c-.876-1.115-1.918-1.961-3.053-2.475a.75.75 0 0 1-.374-.992Z"/></svg><svg viewBox="0 0 19 14" id="toblogers-icon" xmlns="http://www.w3.org/2000/svg"><path fill-rule="evenodd" clip-rule="evenodd" d="M4.719 0H9.28c.674 0 1.224 0 1.672.037.463.037.882.118 1.273.317a3.25 3.25 0 0 1 1.42 1.42c.199.391.28.81.317 1.273.037.447.037.998.037 1.672v.054l1.769-1.77c.16-.16.315-.314.449-.426.121-.102.361-.292.69-.317.373-.03.737.12.98.405.214.251.25.555.263.712.016.175.016.393.016.62V9.17c0 .227 0 .445-.016.62-.014.157-.05.46-.264.712a1.166 1.166 0 0 1-.979.405c-.329-.026-.569-.216-.69-.317a7.634 7.634 0 0 1-.45-.427L14 8.394v.054c0 .673 0 1.224-.037 1.672-.037.463-.118.881-.317 1.272a3.25 3.25 0 0 1-1.42 1.42c-.391.2-.81.28-1.273.318-.447.037-.998.037-1.672.037H4.72c-.674 0-1.225 0-1.672-.037-.463-.038-.882-.119-1.272-.318a3.25 3.25 0 0 1-1.42-1.42c-.2-.39-.28-.809-.318-1.272C0 9.672 0 9.12 0 8.448v-3.73c0-.673 0-1.224.037-1.671.037-.463.118-.882.317-1.272a3.25 3.25 0 0 1 1.42-1.42c.391-.2.81-.28 1.273-.318C3.494 0 4.045 0 4.719 0ZM12.5 4.75c0-.712 0-1.202-.032-1.58-.03-.371-.085-.57-.159-.714a1.75 1.75 0 0 0-.764-.765c-.145-.074-.344-.13-.714-.16-.38-.03-.869-.031-1.581-.031h-4.5c-.712 0-1.202 0-1.58.032-.371.03-.57.085-.714.159a1.75 1.75 0 0 0-.765.765c-.074.144-.13.343-.16.713-.03.38-.031.869-.031 1.581v3.667c0 .712 0 1.201.032 1.58.03.371.085.57.159.714.168.33.435.597.765.765.144.073.343.129.713.16.38.03.869.03 1.581.03h4.5c.712 0 1.202 0 1.58-.03.371-.031.57-.087.714-.16a1.75 1.75 0 0 0 .765-.765c.074-.144.13-.343.16-.713.03-.38.031-.869.031-1.581V4.75Zm1.81 1.833 2.357 2.356V4.227L14.31 6.583Z"/></svg></svg>