<svg width="37" height="37" fill="none" xmlns="http://www.w3.org/2000/svg"><path d="M35.458 16.958h-3.083v-3.083a1.542 1.542 0 10-3.083 0v3.083h-3.084a1.542 1.542 0 000 3.084h3.084v3.083a1.542 1.542 0 103.083 0v-3.083h3.083a1.542 1.542 0 000-3.084zM13.875 18.5a9.25 9.25 0 10-9.25-9.25 9.259 9.259 0 009.25 9.25zm0-15.417a6.167 6.167 0 110 12.333 6.167 6.167 0 010-12.333zm0 18.5A13.89 13.89 0 000 35.458a1.542 1.542 0 003.083 0 10.792 10.792 0 0121.584 0 1.542 1.542 0 003.083 0 13.89 13.89 0 00-13.875-13.875z" fill="#1D202C"/></svg>