<svg width="231" height="49" fill="none" xmlns="http://www.w3.org/2000/svg"><path d="M229 18.185c-16.359-5.963-34.042-8.468-51.253-10.577-28.095-3.443-56.249-5.209-84.548-5.549-21.868-.263-44.016.195-65.522 4.611-4.352.894-32.412 6.53-24.17 16.152 3.697 4.317 9.845 6.897 14.944 8.883 13.075 5.094 27.135 7.76 40.96 9.795 20.82 3.064 41.878 4.464 62.898 5.106 20.576.629 41.448.884 61.857-2.24 7.32-1.12 44.557-6.668 34.178-22.17-4.9-7.317-14.659-11.636-22.56-14.536-8.779-3.223-17.529-4.078-26.666-5.418" stroke="#B9FF66" stroke-width="3" stroke-linecap="round"/></svg>