<svg width="71" height="40" fill="none" xmlns="http://www.w3.org/2000/svg"><g clip-path="url(#clip0_301_106)"><path d="M5.714 6.431A7.994 7.994 0 0113.552 0h43.895a7.994 7.994 0 017.84 6.431l4.8 24c.99 4.95-2.79 9.569-7.839 9.569H8.752C3.704 40-.076 35.381.914 30.431l4.8-24z" fill="#0042FF"/><mask id="a" style="mask-type:alpha" maskUnits="userSpaceOnUse" x="0" y="0" width="71" height="40"><path d="M5.714 6.431A7.994 7.994 0 0113.552 0h43.895a7.994 7.994 0 017.84 6.431l4.8 24c.99 4.95-2.79 9.569-7.839 9.569H8.752C3.704 40-.076 35.381.914 30.431l4.8-24z" fill="#0042FF"/></mask><g mask="url(#a)"><path d="M20.098 55.798c-6.422 0-11.381-1.824-14.877-5.472C1.763 46.678.034 40.845.034 32.827c0-8.018 1.729-13.851 5.187-17.499 3.496-3.648 8.455-5.472 14.877-5.472 6.422 0 11.362 1.824 14.82 5.472 3.496 3.648 5.244 9.481 5.244 17.499 0 7.41-1.615 13.091-4.845 17.043-3.192 3.952-8.265 5.928-15.22 5.928zm0-10.146c2.584 0 3.876-1.406 3.876-4.218V24.22c0-2.812-1.292-4.218-3.876-4.218-2.584 0-3.876 1.406-3.876 4.218v17.214c0 2.812 1.292 4.218 3.876 4.218zM43.492 55v-9.348h5.472v-25.65h-7.182v-6.441l12.654-2.907h9.576v34.998H68.8V55H43.492z" fill="url(#paint0_linear_301_106)"/></g></g><defs><linearGradient id="paint0_linear_301_106" x1="35" y1="10" x2="35" y2="57" gradientUnits="userSpaceOnUse"><stop stop-color="#fff"/><stop offset="1" stop-color="#fff" stop-opacity="0"/></linearGradient><clipPath id="clip0_301_106"><path fill="#fff" d="M0 0h71v40H0z"/></clipPath></defs></svg>