<svg width="71" height="40" fill="none" xmlns="http://www.w3.org/2000/svg"><g clip-path="url(#clip0_302_108)"><path d="M5.714 6.431A7.994 7.994 0 0113.552 0h43.895a7.994 7.994 0 017.84 6.431l4.8 24c.99 4.95-2.79 9.569-7.839 9.569H8.752C3.704 40-.076 35.381.914 30.431l4.8-24z" fill="#FF5574"/><mask id="a" style="mask-type:alpha" maskUnits="userSpaceOnUse" x="0" y="0" width="71" height="40"><path d="M5.714 6.431A7.994 7.994 0 0113.552 0h43.895a7.994 7.994 0 017.84 6.431l4.8 24c.99 4.95-2.79 9.569-7.839 9.569H8.752C3.704 40-.076 35.381.914 30.431l4.8-24z" fill="#FF5574"/></mask><g mask="url(#a)"><path d="M16.924 55.798c-6.422 0-11.381-1.824-14.877-5.472-3.458-3.648-5.187-9.481-5.187-17.499 0-8.018 1.729-13.851 5.187-17.499 3.496-3.648 8.455-5.472 14.877-5.472 6.422 0 11.362 1.824 14.82 5.472 3.496 3.648 5.244 9.481 5.244 17.499 0 7.41-1.615 13.091-4.845 17.043-3.192 3.952-8.265 5.928-15.219 5.928zm0-10.146c2.584 0 3.876-1.406 3.876-4.218V24.22c0-2.812-1.292-4.218-3.876-4.218-2.584 0-3.876 1.406-3.876 4.218v17.214c0 2.812 1.292 4.218 3.876 4.218zm44.085-19.95c4.256 0 7.505 1.254 9.747 3.762s3.363 5.909 3.363 10.203c0 3.23-.74 6.061-2.223 8.493-1.444 2.432-3.61 4.313-6.498 5.643-2.888 1.33-6.384 1.995-10.488 1.995-2.774 0-5.548-.304-8.322-.912-2.774-.646-5.244-1.425-7.41-2.337V40.408c4.94 2.318 9.424 3.477 13.452 3.477 2.09 0 3.648-.418 4.674-1.254 1.026-.874 1.54-2.223 1.54-4.047 0-1.33-.305-2.375-.913-3.135-.608-.76-1.577-1.14-2.907-1.14-1.026 0-1.862.266-2.508.798-.608.494-1.102 1.216-1.482 2.166h-11.97l2.451-26.619H71.84v11.058H52.915l-.513 5.871c2.394-1.254 5.263-1.881 8.607-1.881z" fill="url(#paint0_linear_302_108)"/></g></g><defs><linearGradient id="paint0_linear_302_108" x1="35.5" y1="10" x2="35.5" y2="57" gradientUnits="userSpaceOnUse"><stop stop-color="#fff"/><stop offset="1" stop-color="#fff" stop-opacity="0"/></linearGradient><clipPath id="clip0_302_108"><path fill="#fff" d="M0 0h71v40H0z"/></clipPath></defs></svg>