<svg width="149" height="42" fill="none" xmlns="http://www.w3.org/2000/svg"><path d="M138.715 12.04c-13.116-3.61-26.661-5.967-40.145-7.698-19.415-2.493-39.443-3.306-58.915-.898-7.043.87-14.107 2.214-20.842 4.48-4.672 1.573-9.338 3.63-12.783 7.255-2.16 2.27-3.903 5.233-4.024 8.43-.182 4.819 3.787 8.132 7.802 10.06 7.426 3.565 16.148 4.702 24.252 5.479 10.504 1.007 21.183.965 31.72.665 11.041-.314 22.032-1.402 32.946-3.083 12.138-1.87 24.646-4.05 36.256-8.164 2.984-1.057 5.524-2.06 8.158-3.782 1.569-1.025 3.172-2.168 3.712-4.082 1.329-4.718-6.634-7.446-9.574-8.518-10.233-3.73-21.31-5.37-32.077-6.677-11.155-1.356-22.277-1.77-33.492-2.052" stroke="#B9FF66" stroke-width="3" stroke-linecap="round"/></svg>