<svg width="50" height="50" fill="none" xmlns="http://www.w3.org/2000/svg"><path d="M24.52 11.941a12.547 12.547 0 00-12.568 12.567c0 6.957 5.61 12.567 12.567 12.567 6.956 0 12.567-5.61 12.567-12.567 0-6.956-5.61-12.567-12.567-12.567zm0 20.737c-4.496 0-8.171-3.663-8.171-8.17 0-4.506 3.664-8.17 8.17-8.17s8.17 3.664 8.17 8.17c0 4.507-3.674 8.17-8.17 8.17zm16.012-21.251a2.924 2.924 0 01-2.932 2.931 2.924 2.924 0 01-2.93-2.931 2.931 2.931 0 015.862 0zm8.323 2.975c-.186-3.927-1.083-7.405-3.96-10.27C42.03 1.266 38.553.369 34.626.172c-4.047-.23-16.176-.23-20.223 0-3.916.186-7.394 1.083-10.27 3.949C1.255 6.986.369 10.464.172 14.39c-.23 4.047-.23 16.177 0 20.224.186 3.926 1.083 7.404 3.96 10.27 2.876 2.865 6.343 3.762 10.27 3.96 4.047.229 16.176.229 20.223 0 3.927-.187 7.405-1.084 10.27-3.96 2.866-2.866 3.763-6.344 3.96-10.27.23-4.047.23-16.166 0-20.213zm-5.228 24.555a8.272 8.272 0 01-4.66 4.659c-3.226 1.28-10.882.984-14.448.984-3.566 0-11.233.285-14.448-.984a8.272 8.272 0 01-4.66-4.66c-1.28-3.226-.984-10.882-.984-14.448 0-3.565-.284-11.233.984-14.448a8.272 8.272 0 014.66-4.66c3.226-1.28 10.882-.984 14.448-.984 3.566 0 11.233-.284 14.449.984a8.272 8.272 0 014.659 4.66c1.28 3.226.984 10.883.984 14.448 0 3.566.296 11.233-.984 14.449z" fill="#fff"/></svg>