<svg width="129" height="35" fill="none" xmlns="http://www.w3.org/2000/svg"><path d="M71.197 12.921c-.557-.481-1.26-.736-2.02-.828-1.535-.187-3.294.29-4.492.902-.555.283-1.22.68-1.824 1.159v-.066c0-1.25-1.027-2.265-2.293-2.265-1.266 0-2.293 1.014-2.293 2.265v18.647c0 1.25 1.027 2.265 2.293 2.265 1.266 0 2.293-1.015 2.293-2.265V18.362c1.802-1.496 3.787-2.301 6.34-2.199 1.067.043 2.27-.137 2.648-1.285.228-.692-.098-1.478-.652-1.957zm57.077 0c-.556-.481-1.26-.736-2.019-.828-1.536-.187-3.295.29-4.493.902-.555.283-1.22.68-1.824 1.159v-.066c0-1.25-1.026-2.265-2.293-2.265-1.266 0-2.293 1.014-2.293 2.265v18.647c0 1.25 1.027 2.265 2.293 2.265 1.267 0 2.293-1.015 2.293-2.265V18.362c1.802-1.496 3.787-2.301 6.34-2.199 1.067.043 2.271-.137 2.649-1.285.227-.692-.098-1.478-.653-1.957zm-75.562 7.912v11.262c0 1.246-.938 2.278-2.094 2.278-1.157 0-2.095-1.032-2.095-2.278v-1.3c-1.377 2.525-3.77 3.793-6.543 3.793-3.67 0-7.061-2.235-7.061-6.791 0-4.428 3.63-6.964 8.417-6.964 1.676 0 3.312.344 5.187 1.117v-.86c0-3.095-1.357-4.771-5.027-4.771a9.246 9.246 0 00-3.92.88c-.718.345-1.117.56-1.775.56-.808 0-1.626-.666-1.626-1.86 0-.773.39-1.547 1.506-2.127 1.376-.71 3.84-1.537 6.632-1.537 5.866 0 8.4 2.666 8.4 8.598zm-4.19 4.17c-1.635-.818-3.27-1.162-4.746-1.162-3.152 0-4.668 1.29-4.668 3.654 0 2.32 1.437 3.44 3.67 3.44 3.072 0 5.745-2.064 5.745-5.933zM74.52 12.726V8.76a2.246 2.246 0 012.242-2.25 2.246 2.246 0 012.242 2.25v3.966h5.499c1.12 0 2.028.91 2.028 2.036a2.032 2.032 0 01-2.028 2.036h-5.499V26.4c0 2.787 1.602 3.9 3.609 3.9.662 0 1.388-.128 1.783-.235.534-.15.822-.172 1.004-.172 1.132 0 1.932.793 1.932 1.919 0 .996-.566 1.778-1.719 2.197-.95.343-2.274.579-3.64.579-3.374 0-7.453-1.715-7.453-7.502V16.798m33.666 7.256H93.91c.482 3.588 3.135 6.145 7.849 6.145a13.28 13.28 0 004.826-.911c.246-.088.526-.142.806-.142 1.209 0 2.183.954 2.183 2.14 0 .877-.537 1.634-1.298 1.963-2.016.867-4.266 1.34-6.651 1.34-7.882 0-12.585-5.048-12.585-11.456 0-6.32 4.568-11.368 11.6-11.368 6.225 0 10.256 3.95 10.256 9.941 0 1.635-1.031 2.348-2.71 2.348zm-2.049-3.236c0-3.49-3.213-5.102-5.654-5.102-3.314 0-5.7 1.986-6.416 5.047l12.07.055zm-76.81.475c-1.151 0-2.084.921-2.084 2.059 0 .725-.114 1.439-.339 2.12-.959 2.908-3.727 4.86-6.887 4.86-3.985 0-7.226-3.13-7.226-6.98 0-3.85 3.242-6.982 7.226-6.982 2.078 0 4.057.866 5.43 2.376.77.846 2.088.916 2.944.156a2.04 2.04 0 00.158-2.908c-2.163-2.378-5.273-3.741-8.532-3.741-2.806 0-5.377.993-7.365 2.636V2.157C12.652.965 11.675 0 10.47 0 9.261 0 8.285.965 8.285 2.157c0 4.012-.16 8.06 0 12.069.132 3.326-.269 6.697.335 10.012.601 3.3 2.18 6.455 5.07 8.34a11.617 11.617 0 006.326 1.872c4.971 0 9.332-3.095 10.85-7.701.362-1.096.544-2.238.544-3.397.001-1.137-.932-2.059-2.083-2.059zM3.441 11.347c.88.42 1.526 1.227 1.909 2.115.383.887.528 1.856.615 2.817a25.345 25.345 0 01-.04 4.948c-.02.192-.092.435-.287.453-.133.012-.243-.097-.332-.197a41.648 41.648 0 01-4.44-5.99c-.379-.624-.748-1.28-.844-2.001-.259-1.95 1.779-2.927 3.42-2.145z" fill="#fff"/></svg>