<svg width="60" height="40" fill="none" xmlns="http://www.w3.org/2000/svg"><rect width="60" height="40" rx="20" fill="#B9FF66"/><path d="M33.545 17.925c.374-.664.686-1.264.879-1.72.933-2.215.01-4.764-2.247-5.804-2.257-1.04-4.524.039-5.518 2.12-1.902-1.305-4.44-1.114-5.84.923-1.398 2.037-.96 4.698.957 6.15.87.659 2.59 1.63 4.21 2.494m8.311-2.338c-.422-2.268-2.352-3.927-4.781-3.476-2.43.451-4.001 2.643-3.673 5.025.264 1.914 1.72 6.404 2.283 8.095.077.23.115.346.191.427.067.07.155.12.248.143.108.025.227 0 .466-.048 1.745-.358 6.362-1.342 8.152-2.07 2.227-.907 3.376-3.362 2.515-5.693-.86-2.331-3.226-3.171-5.4-2.403z" stroke="#1D202C" stroke-width="2" stroke-linecap="round" stroke-linejoin="round"/></svg>