<svg width="130" height="82" fill="none" xmlns="http://www.w3.org/2000/svg"><path opacity=".3" d="M124.584 70.563h-3.613c-1.354 0-2.698.103-4.035.31l-38.165-28.68 9.143-8.77c2.161-2.074 2.237-5.515.168-7.675-2.074-2.165-5.508-2.236-7.659-.168L57.821 47.263a5.351 5.351 0 01-4.269 1.574c-1.614-.13-3.033-.95-4.002-2.307-1.484-2.062-1.03-5.292.91-7.24l25.473-24.04c4.826-4.542 12.371-5.655 18.275-2.686l12.545 6.285a27.175 27.175 0 0012.105 2.86h5.72a5.418 5.418 0 005.417-5.427 5.418 5.418 0 00-5.417-5.428h-5.72a16.32 16.32 0 01-7.268-1.715L99.056 2.855C89.176-2.1 76.56-.261 68.502 7.349l-3.348 3.159-3.791-3.463C56.385 2.502 49.94 0 43 0a27.08 27.08 0 00-12.06 2.85L18.405 9.134a16.363 16.363 0 01-7.274 1.715H5.42a5.417 5.417 0 00-5.416 5.427 5.417 5.417 0 005.417 5.428h5.72c4.176 0 8.368-.993 12.11-2.86l12.545-6.286c5.536-2.79 13.314-2.035 18.275 2.508l3.18 2.904L42.92 31.496c-5.812 5.818-6.738 15.018-2.156 21.374 2.817 3.924 8.412 6.833 13.238 6.833 4.295 0 8.417-1.694 11.396-4.684l5.45-5.227 34.372 25.83c-.168.12-33.571 25.216-33.571 25.216-3.916 3.05-9.382 3.05-13.379-.059L25.278 75.986A27.197 27.197 0 009.03 70.558H5.416A5.417 5.417 0 000 75.985a5.417 5.417 0 005.416 5.428H9.03c3.494 0 6.955 1.156 9.75 3.257l32.916 24.738A21.656 21.656 0 0065.025 114a21.43 21.43 0 0013.2-4.532l33.002-24.793a16.296 16.296 0 019.744-3.257h3.613A5.417 5.417 0 00130 75.992a5.417 5.417 0 00-5.416-5.428z" fill="#373D52"/></svg>