<svg width="35" height="35" fill="none" xmlns="http://www.w3.org/2000/svg"><path d="M17.5 2.083l3.102 8.065c.434 1.13.652 1.696.99 2.17.3.422.668.79 1.089 1.09.476.338 1.04.555 2.171.99l8.065 3.102-8.065 3.102c-1.13.434-1.695.652-2.17.99-.422.3-.79.668-1.09 1.089-.338.476-.555 1.04-.99 2.171L17.5 32.917l-3.102-8.065c-.435-1.13-.652-1.695-.99-2.171-.3-.421-.668-.79-1.09-1.09-.474-.337-1.04-.555-2.17-.99L2.083 17.5l8.065-3.102c1.13-.435 1.696-.652 2.17-.99.422-.3.79-.668 1.09-1.09.338-.474.555-1.04.99-2.17L17.5 2.083z" fill="#1D202C" stroke="#373D52" stroke-linecap="round"/></svg>