<svg width="128" height="81" fill="none" xmlns="http://www.w3.org/2000/svg"><path opacity=".3" d="M5.85 12.844c3.606-1.71 7.857-1.351 11.078.952.208.147.405.314.587.486l9.37 8.977C28.011 10.273 39.371 0 53.333 0h48C116.037-.005 128 11.35 128 25.309v30.377C128 69.644 116.037 81 101.333 81h-48C39.312 81 27.904 70.636 26.87 57.574l-9.365 8.88a6.188 6.188 0 01-.57.466 10.908 10.908 0 01-6.337 2.015 11.04 11.04 0 01-4.746-1.068C2.24 66.156 0 62.708 0 58.886v-37.05c0-3.833 2.24-7.275 5.85-8.987v-.005zm47.483 58.03h48c8.822 0 16-6.814 16-15.188V25.309c0-8.374-7.178-15.188-16-15.188h-48c-8.821 0-16 6.814-16 15.188v30.377c0 8.374 7.179 15.188 16 15.188zM26.667 43.45v-6.02l-16-15.33-.134 36.645 16.134-15.3v.005z" fill="#373D52"/></svg>