<svg width="206" height="45" fill="none" xmlns="http://www.w3.org/2000/svg"><path d="M204.5 16.746c-14.63-5.433-30.443-7.715-45.834-9.637-25.124-3.136-50.302-4.745-75.609-5.055-19.556-.24-39.363.177-58.594 4.201-3.892.814-28.986 5.95-21.616 14.716 3.307 3.934 8.805 6.284 13.365 8.093 11.693 4.642 24.265 7.071 36.63 8.925 18.617 2.791 37.45 4.067 56.247 4.652 18.4.573 37.066.805 55.317-2.041 6.547-1.021 39.846-6.075 30.565-20.199-4.382-6.667-13.11-10.602-20.175-13.244-7.851-2.936-15.676-3.716-23.847-4.937" stroke="#0042FF" stroke-width="3" stroke-linecap="round"/></svg>