<svg width="22" height="22" fill="none" xmlns="http://www.w3.org/2000/svg"><path d="M9.228 18.313c-.961-2.027-1.771-3.71-1.8-3.74-.03-.03-1.714-.84-3.741-1.801C1.659 11.81 0 11.013 0 11c0-.013 1.659-.81 3.687-1.772 2.027-.961 3.71-1.771 3.74-1.8.03-.03.84-1.714 1.801-3.741C10.19 1.659 10.987 0 11 0c.013 0 .81 1.659 1.772 3.687.961 2.027 1.771 3.71 1.8 3.74.03.03 1.713.84 3.741 1.801S22 10.987 22 11c0 .013-1.659.81-3.687 1.772-2.027.961-3.71 1.771-3.74 1.8-.03.03-.84 1.713-1.801 3.741S11.013 22 11 22c-.013 0-.81-1.659-1.772-3.687z" fill="#fff"/></svg>