<svg width="47" height="47" fill="none" xmlns="http://www.w3.org/2000/svg"><path d="M3.304 3.304C0 6.607 0 11.925 0 22.56v1.88c0 10.635 0 15.953 3.304 19.256C6.607 47 11.925 47 22.56 47h1.88c10.635 0 15.953 0 19.256-3.304C47 40.393 47 35.075 47 24.44v-1.88c0-10.635 0-15.953-3.304-19.256C40.393 0 35.075 0 24.44 0h-1.88C11.925 0 6.607 0 3.304 3.304zM7.93 14.296h5.366c.176 8.969 4.132 12.768 7.265 13.552V14.296h5.053v7.735c3.094-.333 6.345-3.858 7.442-7.735h5.052a14.925 14.925 0 01-6.874 9.752 15.46 15.46 0 018.05 9.812h-5.563a9.668 9.668 0 00-8.107-6.992v6.992h-.607c-10.712 0-16.822-7.344-17.077-19.564z" fill="#fff"/></svg>