<svg width="71" height="40" viewBox="0 0 71 40" fill="none" xmlns="http://www.w3.org/2000/svg">
<g clip-path="url(#clip0_302_104)">
<path d="M5.71378 6.43108C6.46166 2.69168 9.73905 0 13.5525 0C19.6051 0 28.6658 0 35.5 0C42.3342 0 51.3949 0 57.4475 0C61.2609 0 64.5383 2.69168 65.2862 6.43107L70.0862 30.4311C71.0763 35.3814 67.2964 40 62.2481 40C54.5266 40 43.7118 40 35.5 40C27.2882 40 16.4734 40 8.75194 40C3.70357 40 -0.0762812 35.3814 0.913786 30.4311L5.71378 6.43108Z" fill="#B9FF66"/>
<mask id="mask0_302_104" style="mask-type:alpha" maskUnits="userSpaceOnUse" x="0" y="0" width="71" height="40">
<path d="M5.71378 6.43108C6.46166 2.69168 9.73905 0 13.5525 0C19.6051 0 28.6658 0 35.5 0C42.3342 0 51.3949 0 57.4475 0C61.2609 0 64.5383 2.69168 65.2862 6.43107L70.0862 30.4311C71.0763 35.3814 67.2964 40 62.2481 40C54.5266 40 43.7118 40 35.5 40C27.2882 40 16.4734 40 8.75194 40C3.70357 40 -0.0762812 35.3814 0.913786 30.4311L5.71378 6.43108Z" fill="#0042FF"/>
</mask>
<g mask="url(#mask0_302_104)">
<path d="M16.9797 55.798C10.5577 55.798 5.59868 53.974 2.10268 50.326C-1.35532 46.678 -3.08432 40.845 -3.08432 32.827C-3.08432 24.809 -1.35532 18.976 2.10268 15.328C5.59868 11.68 10.5577 9.856 16.9797 9.856C23.4017 9.856 28.3417 11.68 31.7997 15.328C35.2957 18.976 37.0437 24.809 37.0437 32.827C37.0437 40.237 35.4287 45.918 32.1987 49.87C29.0067 53.822 23.9337 55.798 16.9797 55.798ZM16.9797 45.652C19.5637 45.652 20.8557 44.246 20.8557 41.434V24.22C20.8557 21.408 19.5637 20.002 16.9797 20.002C14.3957 20.002 13.1037 21.408 13.1037 24.22V41.434C13.1037 44.246 14.3957 45.652 16.9797 45.652ZM38.5497 50.098C38.5497 46.83 39.0247 43.942 39.9747 41.434C40.9627 38.926 42.5587 36.57 44.7627 34.366C46.9667 32.124 50.0067 29.806 53.8827 27.412C55.0227 26.69 55.8207 26.082 56.2767 25.588C56.7707 25.056 57.0177 24.429 57.0177 23.707C57.0177 22.149 55.8967 21.37 53.6547 21.37C51.9827 21.37 50.0637 21.807 47.8977 22.681C45.7317 23.555 43.7747 24.657 42.0267 25.987L38.6637 13.846C41.0957 12.63 43.8887 11.604 47.0427 10.768C50.1967 9.894 53.3697 9.457 56.5617 9.457C61.8057 9.457 65.8717 10.616 68.7597 12.934C71.6477 15.252 73.0917 18.539 73.0917 22.795C73.0917 25.075 72.5787 27.089 71.5527 28.837C70.5647 30.547 69.3487 31.991 67.9047 33.169C66.4987 34.347 64.6557 35.696 62.3757 37.216C59.8297 38.888 57.9487 40.332 56.7327 41.548C55.5547 42.726 54.9657 44.094 54.9657 45.652H61.8627V42.403H73.5477V55H38.5497V50.098Z" fill="url(#paint0_linear_302_104)"/>
</g>
</g>
<defs>
<linearGradient id="paint0_linear_302_104" x1="35.5" y1="10" x2="35.5" y2="57" gradientUnits="userSpaceOnUse">
<stop stop-color="white"/>
<stop offset="1" stop-color="white" stop-opacity="0"/>
</linearGradient>
<clipPath id="clip0_302_104">
<rect width="71" height="40" fill="white"/>
</clipPath>
</defs>
</svg>
