<svg width="149" height="42" viewBox="0 0 149 42" fill="none" xmlns="http://www.w3.org/2000/svg">
<path d="M138.715 12.0396C125.599 8.43092 112.054 6.07317 98.5698 4.342C79.155 1.84946 59.1273 1.03562 39.6552 3.44357C32.6123 4.31451 25.5476 5.65783 18.8133 7.92462C14.1409 9.49738 9.47527 11.5535 6.02953 15.1786C3.87068 17.4498 2.12691 20.4122 2.00605 23.6083C1.82379 28.4276 5.79254 31.7408 9.80782 33.6684C17.2342 37.2337 25.9565 38.3708 34.0602 39.1477C44.5638 40.1548 55.2428 40.1131 65.78 39.8133C76.8213 39.4991 87.8118 38.4113 98.7258 36.7298C110.864 34.8595 123.372 32.6798 134.982 28.5663C137.966 27.5088 140.506 26.5061 143.14 24.784C144.709 23.7586 146.312 22.6162 146.852 20.7023C148.181 15.9842 140.218 13.2556 137.278 12.1838C127.045 8.45313 115.968 6.81456 105.201 5.50663C94.0461 4.15146 82.9242 3.73722 71.7094 3.45466" stroke="#B9FF66" stroke-width="3" stroke-linecap="round"/>
</svg>
