<svg width="335" height="371" viewBox="0 0 335 371" fill="none" xmlns="http://www.w3.org/2000/svg">
<g clip-path="url(#clip0_101_760)">
<path fill-rule="evenodd" clip-rule="evenodd" d="M335 20C335 8.95431 326.046 0 315 0H20C8.95431 0 0 8.95431 0 20V318C0 329.046 8.95431 338 20 338H103.006C110.87 338 117.759 342.823 122.547 349.062C132.783 362.401 148.887 371 167 371C185.113 371 201.217 362.401 211.453 349.062C216.241 342.823 223.13 338 230.994 338H315C326.046 338 335 329.046 335 318V20Z" fill="url(#paint0_linear_101_760)"/>
<line opacity="0.1" y1="-0.5" x2="301" y2="-0.5" transform="matrix(-4.37114e-08 -1 -1 4.37114e-08 20 371)" stroke="url(#paint1_linear_101_760)"/>
<line opacity="0.1" y1="-0.5" x2="301" y2="-0.5" transform="matrix(-4.37114e-08 -1 -1 4.37114e-08 56.875 371)" stroke="url(#paint2_linear_101_760)"/>
<line opacity="0.1" y1="-0.5" x2="301" y2="-0.5" transform="matrix(-4.37114e-08 -1 -1 4.37114e-08 93.75 371)" stroke="url(#paint3_linear_101_760)"/>
<line opacity="0.1" y1="-0.5" x2="301" y2="-0.5" transform="matrix(-4.37114e-08 -1 -1 4.37114e-08 130.625 371)" stroke="url(#paint4_linear_101_760)"/>
<line opacity="0.1" y1="-0.5" x2="301" y2="-0.5" transform="matrix(-4.37114e-08 -1 -1 4.37114e-08 167.5 371)" stroke="url(#paint5_linear_101_760)"/>
<line opacity="0.1" y1="-0.5" x2="301" y2="-0.5" transform="matrix(-4.37114e-08 -1 -1 4.37114e-08 204.375 371)" stroke="url(#paint6_linear_101_760)"/>
<line opacity="0.1" y1="-0.5" x2="301" y2="-0.5" transform="matrix(-4.37114e-08 -1 -1 4.37114e-08 241.25 371)" stroke="url(#paint7_linear_101_760)"/>
<line opacity="0.1" y1="-0.5" x2="301" y2="-0.5" transform="matrix(-4.37114e-08 -1 -1 4.37114e-08 278.125 371)" stroke="url(#paint8_linear_101_760)"/>
<line opacity="0.1" y1="-0.5" x2="301" y2="-0.5" transform="matrix(-4.37114e-08 -1 -1 4.37114e-08 315 371)" stroke="url(#paint9_linear_101_760)"/>
<path d="M-12 329L20.5456 310.931L40.0729 316.954L58.0982 291.356L78.1262 288.847L95.1501 263.751L114.177 268.77L131.701 286.337L151.729 291.858L168.753 272.785L189.783 279.31L205.805 259.234L224.331 263.751L242.356 295.372L262.384 248.693L279.408 242.169L297.934 246.184L316.46 235.644L345 198" stroke="#B9FF66" stroke-width="2"/>
<circle cx="57.5" cy="291.5" r="3.5" fill="#B9FF66" stroke="#0150ED" stroke-width="2"/>
<circle cx="168.5" cy="273.5" r="3.5" fill="#B9FF66" stroke="#015FF4" stroke-width="2"/>
<circle cx="278.5" cy="242.5" r="3.5" fill="#B9FF66" stroke="#016CFB" stroke-width="2"/>
<path fill-rule="evenodd" clip-rule="evenodd" d="M40 261C37.2386 261 35 263.239 35 266V277C35 279.761 37.2386 282 40 282H52.8944L56.3022 285.32C56.6905 285.698 57.3095 285.698 57.6978 285.32L61.1056 282H74C76.7614 282 79 279.761 79 277V266C79 263.239 76.7614 261 74 261H40Z" fill="white"/>
<path d="M45.5738 273.72C45.5738 272.992 45.8538 272.412 46.4138 271.98C46.6538 271.812 46.9338 271.684 47.2538 271.596V271.524C47.0058 271.428 46.7858 271.296 46.5938 271.128C46.1538 270.752 45.9338 270.256 45.9338 269.64C45.9338 269.008 46.2018 268.472 46.7378 268.032C47.2818 267.584 48.0138 267.36 48.9338 267.36C49.8538 267.36 50.5818 267.584 51.1178 268.032C51.6618 268.472 51.9338 269.008 51.9338 269.64C51.9338 270.24 51.7138 270.736 51.2738 271.128C51.0658 271.296 50.8458 271.428 50.6138 271.524V271.596C50.9178 271.676 51.1978 271.808 51.4538 271.992C52.0138 272.424 52.2938 273 52.2938 273.72C52.2938 274.416 51.9898 275.012 51.3818 275.508C50.7818 275.996 49.9658 276.24 48.9338 276.24C47.9018 276.24 47.0818 275.996 46.4738 275.508C45.8738 275.012 45.5738 274.416 45.5738 273.72ZM47.3738 269.76C47.3738 270.112 47.5098 270.4 47.7818 270.624C48.0538 270.848 48.4378 270.96 48.9338 270.96C49.4298 270.96 49.8138 270.848 50.0858 270.624C50.3578 270.4 50.4938 270.112 50.4938 269.76C50.4938 269.44 50.3538 269.172 50.0738 268.956C49.8018 268.732 49.4218 268.62 48.9338 268.62C48.4458 268.62 48.0618 268.732 47.7818 268.956C47.5098 269.172 47.3738 269.44 47.3738 269.76ZM47.5178 272.628C47.1818 272.892 47.0138 273.216 47.0138 273.6C47.0138 273.984 47.1818 274.312 47.5178 274.584C47.8618 274.848 48.3338 274.98 48.9338 274.98C49.5338 274.98 50.0018 274.848 50.3378 274.584C50.6818 274.312 50.8538 273.984 50.8538 273.6C50.8538 273.216 50.6818 272.892 50.3378 272.628C50.0018 272.356 49.5338 272.22 48.9338 272.22C48.3338 272.22 47.8618 272.356 47.5178 272.628ZM53.1295 276V274.68L55.9975 272.652C56.6215 272.204 57.0695 271.788 57.3415 271.404C57.6135 271.02 57.7495 270.612 57.7495 270.18C57.7495 269.724 57.6095 269.36 57.3295 269.088C57.0495 268.816 56.6695 268.68 56.1895 268.68C55.5975 268.68 55.1535 268.92 54.8575 269.4C54.7295 269.608 54.6335 269.848 54.5695 270.12H53.1295C53.2015 269.608 53.3575 269.148 53.5975 268.74C54.1655 267.82 55.0295 267.36 56.1895 267.36C57.0775 267.36 57.7975 267.624 58.3495 268.152C58.9095 268.672 59.1895 269.328 59.1895 270.12C59.1895 270.808 59.0135 271.428 58.6615 271.98C58.3095 272.524 57.7455 273.064 56.9695 273.6L55.7695 274.44L55.2295 274.68V274.74L55.9495 274.68H59.1895V276H53.1295ZM60.7279 270.864C60.3439 270.472 60.1519 270.004 60.1519 269.46C60.1519 268.916 60.3439 268.452 60.7279 268.068C61.1199 267.676 61.5879 267.48 62.1319 267.48C62.6759 267.48 63.1399 267.676 63.5239 268.068C63.9159 268.452 64.1119 268.916 64.1119 269.46C64.1119 270.004 63.9159 270.472 63.5239 270.864C63.1399 271.248 62.6759 271.44 62.1319 271.44C61.5879 271.44 61.1199 271.248 60.7279 270.864ZM61.1719 276L66.2119 267.6H67.4119L62.3719 276H61.1719ZM61.4479 268.728C61.2639 268.912 61.1719 269.156 61.1719 269.46C61.1719 269.764 61.2639 270.012 61.4479 270.204C61.6319 270.388 61.8599 270.48 62.1319 270.48C62.4039 270.48 62.6319 270.388 62.8159 270.204C62.9999 270.012 63.0919 269.764 63.0919 269.46C63.0919 269.156 62.9999 268.912 62.8159 268.728C62.6319 268.536 62.4039 268.44 62.1319 268.44C61.8599 268.44 61.6319 268.536 61.4479 268.728ZM65.0479 275.544C64.6639 275.152 64.4719 274.684 64.4719 274.14C64.4719 273.596 64.6639 273.132 65.0479 272.748C65.4399 272.356 65.9079 272.16 66.4519 272.16C66.9959 272.16 67.4599 272.356 67.8439 272.748C68.2359 273.132 68.4319 273.596 68.4319 274.14C68.4319 274.684 68.2359 275.152 67.8439 275.544C67.4599 275.928 66.9959 276.12 66.4519 276.12C65.9079 276.12 65.4399 275.928 65.0479 275.544ZM65.7679 273.408C65.5839 273.592 65.4919 273.836 65.4919 274.14C65.4919 274.444 65.5839 274.692 65.7679 274.884C65.9519 275.068 66.1799 275.16 66.4519 275.16C66.7239 275.16 66.9519 275.068 67.1359 274.884C67.3199 274.692 67.4119 274.444 67.4119 274.14C67.4119 273.836 67.3199 273.592 67.1359 273.408C66.9519 273.216 66.7239 273.12 66.4519 273.12C66.1799 273.12 65.9519 273.216 65.7679 273.408Z" fill="#1D202C"/>
<path fill-rule="evenodd" clip-rule="evenodd" d="M151 244C148.239 244 146 246.239 146 249V260C146 262.761 148.239 265 151 265H163.894L167.302 268.32C167.69 268.698 168.31 268.698 168.698 268.32L172.106 265H185C187.761 265 190 262.761 190 260V249C190 246.239 187.761 244 185 244H151Z" fill="white"/>
<path d="M153.57 253.36V251.8L155.13 250.6H156.39V259H155.01V252.28L153.57 253.36ZM158.91 257.992C158.15 257.16 157.77 256.096 157.77 254.8C157.77 253.504 158.15 252.44 158.91 251.608C159.67 250.776 160.59 250.36 161.67 250.36C162.75 250.36 163.67 250.776 164.43 251.608C165.19 252.44 165.57 253.504 165.57 254.8C165.57 256.096 165.19 257.16 164.43 257.992C163.67 258.824 162.75 259.24 161.67 259.24C160.59 259.24 159.67 258.824 158.91 257.992ZM159.894 252.496C159.438 253.04 159.21 253.808 159.21 254.8C159.21 255.792 159.438 256.56 159.894 257.104C160.358 257.648 160.95 257.92 161.67 257.92C162.39 257.92 162.978 257.648 163.434 257.104C163.898 256.56 164.13 255.792 164.13 254.8C164.13 253.808 163.898 253.04 163.434 252.496C162.978 251.952 162.39 251.68 161.67 251.68C160.95 251.68 160.358 251.952 159.894 252.496ZM166.593 256.66H168.033C168.097 256.908 168.205 257.12 168.357 257.296C168.709 257.712 169.221 257.92 169.893 257.92C170.429 257.92 170.853 257.776 171.165 257.488C171.477 257.2 171.633 256.824 171.633 256.36C171.633 255.872 171.477 255.48 171.165 255.184C170.853 254.888 170.429 254.74 169.893 254.74C169.397 254.74 168.977 254.872 168.633 255.136C168.497 255.24 168.377 255.368 168.273 255.52H166.953L167.313 250.6H172.413V251.92H168.453L168.273 254.08H168.333C168.461 253.952 168.609 253.844 168.777 253.756C169.153 253.532 169.605 253.42 170.133 253.42C170.973 253.42 171.673 253.7 172.233 254.26C172.793 254.82 173.073 255.52 173.073 256.36C173.073 257.184 172.777 257.872 172.185 258.424C171.601 258.968 170.837 259.24 169.893 259.24C168.661 259.24 167.745 258.812 167.145 257.956C166.889 257.58 166.705 257.148 166.593 256.66ZM174.552 253.864C174.168 253.472 173.976 253.004 173.976 252.46C173.976 251.916 174.168 251.452 174.552 251.068C174.944 250.676 175.412 250.48 175.956 250.48C176.5 250.48 176.964 250.676 177.348 251.068C177.74 251.452 177.936 251.916 177.936 252.46C177.936 253.004 177.74 253.472 177.348 253.864C176.964 254.248 176.5 254.44 175.956 254.44C175.412 254.44 174.944 254.248 174.552 253.864ZM174.996 259L180.036 250.6H181.236L176.196 259H174.996ZM175.272 251.728C175.088 251.912 174.996 252.156 174.996 252.46C174.996 252.764 175.088 253.012 175.272 253.204C175.456 253.388 175.684 253.48 175.956 253.48C176.228 253.48 176.456 253.388 176.64 253.204C176.824 253.012 176.916 252.764 176.916 252.46C176.916 252.156 176.824 251.912 176.64 251.728C176.456 251.536 176.228 251.44 175.956 251.44C175.684 251.44 175.456 251.536 175.272 251.728ZM178.872 258.544C178.488 258.152 178.296 257.684 178.296 257.14C178.296 256.596 178.488 256.132 178.872 255.748C179.264 255.356 179.732 255.16 180.276 255.16C180.82 255.16 181.284 255.356 181.668 255.748C182.06 256.132 182.256 256.596 182.256 257.14C182.256 257.684 182.06 258.152 181.668 258.544C181.284 258.928 180.82 259.12 180.276 259.12C179.732 259.12 179.264 258.928 178.872 258.544ZM179.592 256.408C179.408 256.592 179.316 256.836 179.316 257.14C179.316 257.444 179.408 257.692 179.592 257.884C179.776 258.068 180.004 258.16 180.276 258.16C180.548 258.16 180.776 258.068 180.96 257.884C181.144 257.692 181.236 257.444 181.236 257.14C181.236 256.836 181.144 256.592 180.96 256.408C180.776 256.216 180.548 256.12 180.276 256.12C180.004 256.12 179.776 256.216 179.592 256.408Z" fill="#1D202C"/>
<path fill-rule="evenodd" clip-rule="evenodd" d="M261 213C258.239 213 256 215.239 256 218V229C256 231.761 258.239 234 261 234H273.894L277.302 237.32C277.69 237.698 278.31 237.698 278.698 237.32L282.106 234H295C297.761 234 300 231.761 300 229V218C300 215.239 297.761 213 295 213H261Z" fill="white"/>
<path d="M264.732 222.36V220.8L266.292 219.6H267.552V228H266.172V221.28L264.732 222.36ZM268.753 225.6H270.193C270.249 225.848 270.357 226.068 270.517 226.26C270.877 226.7 271.389 226.92 272.053 226.92C272.605 226.92 273.041 226.784 273.361 226.512C273.689 226.232 273.853 225.888 273.853 225.48C273.853 225.016 273.705 224.652 273.409 224.388C273.121 224.116 272.709 223.98 272.173 223.98H270.133V222.78L272.653 220.98V220.92H269.173V219.6H274.693V220.908L272.533 222.48L271.933 222.72V222.78L272.125 222.756C272.389 222.732 272.545 222.72 272.593 222.72C273.345 222.72 273.973 222.98 274.477 223.5C274.981 224.02 275.233 224.68 275.233 225.48C275.233 226.248 274.937 226.9 274.345 227.436C273.753 227.972 272.989 228.24 272.053 228.24C270.813 228.24 269.897 227.8 269.305 226.92C269.049 226.544 268.865 226.104 268.753 225.6ZM276.138 225.72C276.138 224.992 276.418 224.412 276.978 223.98C277.218 223.812 277.498 223.684 277.818 223.596V223.524C277.57 223.428 277.35 223.296 277.158 223.128C276.718 222.752 276.498 222.256 276.498 221.64C276.498 221.008 276.766 220.472 277.302 220.032C277.846 219.584 278.578 219.36 279.498 219.36C280.418 219.36 281.146 219.584 281.682 220.032C282.226 220.472 282.498 221.008 282.498 221.64C282.498 222.24 282.278 222.736 281.838 223.128C281.63 223.296 281.41 223.428 281.178 223.524V223.596C281.482 223.676 281.762 223.808 282.018 223.992C282.578 224.424 282.858 225 282.858 225.72C282.858 226.416 282.554 227.012 281.946 227.508C281.346 227.996 280.53 228.24 279.498 228.24C278.466 228.24 277.646 227.996 277.038 227.508C276.438 227.012 276.138 226.416 276.138 225.72ZM277.938 221.76C277.938 222.112 278.074 222.4 278.346 222.624C278.618 222.848 279.002 222.96 279.498 222.96C279.994 222.96 280.378 222.848 280.65 222.624C280.922 222.4 281.058 222.112 281.058 221.76C281.058 221.44 280.918 221.172 280.638 220.956C280.366 220.732 279.986 220.62 279.498 220.62C279.01 220.62 278.626 220.732 278.346 220.956C278.074 221.172 277.938 221.44 277.938 221.76ZM278.082 224.628C277.746 224.892 277.578 225.216 277.578 225.6C277.578 225.984 277.746 226.312 278.082 226.584C278.426 226.848 278.898 226.98 279.498 226.98C280.098 226.98 280.566 226.848 280.902 226.584C281.246 226.312 281.418 225.984 281.418 225.6C281.418 225.216 281.246 224.892 280.902 224.628C280.566 224.356 280.098 224.22 279.498 224.22C278.898 224.22 278.426 224.356 278.082 224.628ZM284.39 222.864C284.006 222.472 283.814 222.004 283.814 221.46C283.814 220.916 284.006 220.452 284.39 220.068C284.782 219.676 285.25 219.48 285.794 219.48C286.338 219.48 286.802 219.676 287.186 220.068C287.578 220.452 287.774 220.916 287.774 221.46C287.774 222.004 287.578 222.472 287.186 222.864C286.802 223.248 286.338 223.44 285.794 223.44C285.25 223.44 284.782 223.248 284.39 222.864ZM284.834 228L289.874 219.6H291.074L286.034 228H284.834ZM285.11 220.728C284.926 220.912 284.834 221.156 284.834 221.46C284.834 221.764 284.926 222.012 285.11 222.204C285.294 222.388 285.522 222.48 285.794 222.48C286.066 222.48 286.294 222.388 286.478 222.204C286.662 222.012 286.754 221.764 286.754 221.46C286.754 221.156 286.662 220.912 286.478 220.728C286.294 220.536 286.066 220.44 285.794 220.44C285.522 220.44 285.294 220.536 285.11 220.728ZM288.71 227.544C288.326 227.152 288.134 226.684 288.134 226.14C288.134 225.596 288.326 225.132 288.71 224.748C289.102 224.356 289.57 224.16 290.114 224.16C290.658 224.16 291.122 224.356 291.506 224.748C291.898 225.132 292.094 225.596 292.094 226.14C292.094 226.684 291.898 227.152 291.506 227.544C291.122 227.928 290.658 228.12 290.114 228.12C289.57 228.12 289.102 227.928 288.71 227.544ZM289.43 225.408C289.246 225.592 289.154 225.836 289.154 226.14C289.154 226.444 289.246 226.692 289.43 226.884C289.614 227.068 289.842 227.16 290.114 227.16C290.386 227.16 290.614 227.068 290.798 226.884C290.982 226.692 291.074 226.444 291.074 226.14C291.074 225.836 290.982 225.592 290.798 225.408C290.614 225.216 290.386 225.12 290.114 225.12C289.842 225.12 289.614 225.216 289.43 225.408Z" fill="#1D202C"/>
<path d="M199 315C203.418 315 207.081 318.617 206.203 322.947C204.652 330.595 200.884 337.684 195.284 343.284C187.783 350.786 177.609 355 167 355C156.391 355 146.217 350.786 138.716 343.284C133.116 337.684 129.348 330.595 127.797 322.947C126.919 318.617 130.582 315 135 315L167 315H199Z" fill="#B9FF66"/>
<mask id="mask0_101_760" style="mask-type:alpha" maskUnits="userSpaceOnUse" x="127" y="315" width="80" height="40">
<path d="M199 315C203.418 315 207.081 318.617 206.203 322.947C204.652 330.595 200.884 337.684 195.284 343.284C187.783 350.786 177.609 355 167 355C156.391 355 146.217 350.786 138.716 343.284C133.116 337.684 129.348 330.595 127.797 322.947C126.919 318.617 130.582 315 135 315L167 315H199Z" fill="#B9FF66"/>
</mask>
<g mask="url(#mask0_101_760)">
<path d="M191.086 358.038C188.968 356.815 186.208 357.631 184.921 359.861C184.1 361.283 183.081 362.561 181.896 363.66C176.84 368.342 169.537 369.23 163.723 365.873C156.392 361.641 153.974 352.058 158.332 344.51C162.69 336.962 172.199 334.264 179.529 338.496C183.353 340.704 186.014 344.503 186.831 348.924C187.289 351.4 189.634 352.936 192.071 352.355C194.507 351.776 196.111 349.299 195.652 346.822C194.366 339.862 190.187 333.884 184.191 330.422C179.028 327.442 173.173 326.658 167.656 327.77L182.07 302.804C183.419 300.468 182.713 297.536 180.494 296.255C178.275 294.974 175.384 295.828 174.035 298.165C169.493 306.032 164.615 313.799 160.371 321.829C156.85 328.491 152.297 334.675 149.655 341.818C147.024 348.928 146.359 356.789 149.541 363.558C151.599 367.935 154.94 371.568 159.06 373.947C168.206 379.227 179.732 377.79 187.742 370.371C189.646 368.607 191.276 366.561 192.588 364.289C193.876 362.06 193.204 359.261 191.086 358.038Z" fill="#97DD45"/>
<path d="M154.243 311.151C155.375 312.886 155.647 315.125 155.351 317.245C155.057 319.364 154.238 321.391 153.322 323.342C151.753 326.681 149.875 329.878 147.723 332.873C147.471 333.224 147.07 333.619 146.696 333.448C146.44 333.331 146.361 333.006 146.311 332.718C145.389 327.377 144.905 321.935 144.931 316.469C144.939 314.863 145.001 313.209 145.633 311.711C147.34 307.666 152.134 307.916 154.243 311.151Z" fill="#97DD45"/>
</g>
</g>
<defs>
<linearGradient id="paint0_linear_101_760" x1="8.23067e-06" y1="194.793" x2="229.195" y2="382.775" gradientUnits="userSpaceOnUse">
<stop stop-color="#0039E2"/>
<stop offset="1" stop-color="#0075FF"/>
</linearGradient>
<linearGradient id="paint1_linear_101_760" x1="0" y1="0" x2="301" y2="-1.26124e-05" gradientUnits="userSpaceOnUse">
<stop stop-color="white"/>
<stop offset="0.629996" stop-color="white" stop-opacity="0"/>
</linearGradient>
<linearGradient id="paint2_linear_101_760" x1="0" y1="0" x2="301" y2="-1.26124e-05" gradientUnits="userSpaceOnUse">
<stop stop-color="white"/>
<stop offset="0.629996" stop-color="white" stop-opacity="0"/>
</linearGradient>
<linearGradient id="paint3_linear_101_760" x1="0" y1="0" x2="301" y2="-1.26124e-05" gradientUnits="userSpaceOnUse">
<stop stop-color="white"/>
<stop offset="0.629996" stop-color="white" stop-opacity="0"/>
</linearGradient>
<linearGradient id="paint4_linear_101_760" x1="0" y1="0" x2="301" y2="-1.26124e-05" gradientUnits="userSpaceOnUse">
<stop stop-color="white"/>
<stop offset="0.629996" stop-color="white" stop-opacity="0"/>
</linearGradient>
<linearGradient id="paint5_linear_101_760" x1="0" y1="0" x2="301" y2="-1.26124e-05" gradientUnits="userSpaceOnUse">
<stop stop-color="white"/>
<stop offset="0.629996" stop-color="white" stop-opacity="0"/>
</linearGradient>
<linearGradient id="paint6_linear_101_760" x1="0" y1="0" x2="301" y2="-1.26124e-05" gradientUnits="userSpaceOnUse">
<stop stop-color="white"/>
<stop offset="0.629996" stop-color="white" stop-opacity="0"/>
</linearGradient>
<linearGradient id="paint7_linear_101_760" x1="0" y1="0" x2="301" y2="-1.26124e-05" gradientUnits="userSpaceOnUse">
<stop stop-color="white"/>
<stop offset="0.629996" stop-color="white" stop-opacity="0"/>
</linearGradient>
<linearGradient id="paint8_linear_101_760" x1="0" y1="0" x2="301" y2="-1.26124e-05" gradientUnits="userSpaceOnUse">
<stop stop-color="white"/>
<stop offset="0.629996" stop-color="white" stop-opacity="0"/>
</linearGradient>
<linearGradient id="paint9_linear_101_760" x1="0" y1="0" x2="301" y2="-1.26124e-05" gradientUnits="userSpaceOnUse">
<stop stop-color="white"/>
<stop offset="0.629996" stop-color="white" stop-opacity="0"/>
</linearGradient>
<clipPath id="clip0_101_760">
<rect width="335" height="371" rx="20" fill="white"/>
</clipPath>
</defs>
</svg>
