<svg width="71" height="40" viewBox="0 0 71 40" fill="none" xmlns="http://www.w3.org/2000/svg">
<g clip-path="url(#clip0_302_108)">
<path d="M5.71378 6.43108C6.46166 2.69168 9.73905 0 13.5525 0C19.6051 0 28.6658 0 35.5 0C42.3342 0 51.3949 0 57.4475 0C61.2609 0 64.5383 2.69168 65.2862 6.43107L70.0862 30.4311C71.0763 35.3814 67.2964 40 62.2481 40C54.5266 40 43.7118 40 35.5 40C27.2882 40 16.4734 40 8.75194 40C3.70357 40 -0.0762812 35.3814 0.913786 30.4311L5.71378 6.43108Z" fill="#FF5574"/>
<mask id="mask0_302_108" style="mask-type:alpha" maskUnits="userSpaceOnUse" x="0" y="0" width="71" height="40">
<path d="M5.71378 6.43108C6.46166 2.69168 9.73905 0 13.5525 0C19.6051 0 28.6658 0 35.5 0C42.3342 0 51.3949 0 57.4475 0C61.2609 0 64.5383 2.69168 65.2862 6.43107L70.0862 30.4311C71.0763 35.3814 67.2964 40 62.2481 40C54.5266 40 43.7118 40 35.5 40C27.2882 40 16.4734 40 8.75194 40C3.70357 40 -0.0762812 35.3814 0.913786 30.4311L5.71378 6.43108Z" fill="#FF5574"/>
</mask>
<g mask="url(#mask0_302_108)">
<path d="M16.924 55.798C10.502 55.798 5.54301 53.974 2.04701 50.326C-1.41099 46.678 -3.13999 40.845 -3.13999 32.827C-3.13999 24.809 -1.41099 18.976 2.04701 15.328C5.54301 11.68 10.502 9.856 16.924 9.856C23.346 9.856 28.286 11.68 31.744 15.328C35.24 18.976 36.988 24.809 36.988 32.827C36.988 40.237 35.373 45.918 32.143 49.87C28.951 53.822 23.878 55.798 16.924 55.798ZM16.924 45.652C19.508 45.652 20.8 44.246 20.8 41.434V24.22C20.8 21.408 19.508 20.002 16.924 20.002C14.34 20.002 13.048 21.408 13.048 24.22V41.434C13.048 44.246 14.34 45.652 16.924 45.652ZM61.0091 25.702C65.2651 25.702 68.5141 26.956 70.7561 29.464C72.9981 31.972 74.1191 35.373 74.1191 39.667C74.1191 42.897 73.3781 45.728 71.8961 48.16C70.4521 50.592 68.2861 52.473 65.3981 53.803C62.5101 55.133 59.0141 55.798 54.9101 55.798C52.1361 55.798 49.3621 55.494 46.5881 54.886C43.8141 54.24 41.3441 53.461 39.1781 52.549V40.408C44.1181 42.726 48.6021 43.885 52.6301 43.885C54.7201 43.885 56.2781 43.467 57.3041 42.631C58.3301 41.757 58.8431 40.408 58.8431 38.584C58.8431 37.254 58.5391 36.209 57.9311 35.449C57.3231 34.689 56.3541 34.309 55.0241 34.309C53.9981 34.309 53.1621 34.575 52.5161 35.107C51.9081 35.601 51.4141 36.323 51.0341 37.273H39.0641L41.5151 10.654H71.8391V21.712H52.9151L52.4021 27.583C54.7961 26.329 57.6651 25.702 61.0091 25.702Z" fill="url(#paint0_linear_302_108)"/>
</g>
</g>
<defs>
<linearGradient id="paint0_linear_302_108" x1="35.5" y1="10" x2="35.5" y2="57" gradientUnits="userSpaceOnUse">
<stop stop-color="white"/>
<stop offset="1" stop-color="white" stop-opacity="0"/>
</linearGradient>
<clipPath id="clip0_302_108">
<rect width="71" height="40" fill="white"/>
</clipPath>
</defs>
</svg>
