<svg width="130" height="82" viewBox="0 0 130 82" fill="none" xmlns="http://www.w3.org/2000/svg">
<path opacity="0.3" d="M124.584 70.5634H120.971C119.617 70.5634 118.273 70.6665 116.936 70.8728L78.7713 42.1937L87.9142 33.4228C90.0754 31.3495 90.1512 27.9084 88.0822 25.7482C86.0077 23.5827 82.5736 23.5121 80.4233 25.58L57.8205 47.263C56.6939 48.3919 55.161 48.9727 53.5524 48.837C51.9383 48.7067 50.5191 47.8872 49.5496 46.5303C48.0655 44.4678 48.5205 41.2384 50.4596 39.2899L75.9331 15.2514C80.7591 10.7085 88.3042 9.59589 94.2082 12.5648L106.753 18.8498C110.49 20.7223 114.682 21.7102 118.858 21.7102H124.578C127.573 21.7102 129.995 19.284 129.995 16.2826C129.995 13.2812 127.573 10.8551 124.578 10.8551H118.858C116.351 10.8551 113.832 10.2635 111.59 9.13997L99.0559 2.85489C89.1763 -2.10046 76.5614 -0.260522 68.5017 7.34889L65.1544 10.5077L61.3629 7.04494C56.3852 2.50209 49.9396 0 43.0011 0C38.8251 0 34.6598 0.987812 30.9387 2.84946L18.4051 9.13455C16.1572 10.258 13.6386 10.8496 11.1308 10.8496H5.42186C2.42657 10.8496 0.00541644 13.2758 0.00541644 16.2772C0.00541644 19.2786 2.42657 21.7047 5.42186 21.7047H11.1416C15.3177 21.7047 19.51 20.7115 23.2528 18.8444L35.7973 12.5593C41.3329 9.76957 49.1109 10.524 54.0723 15.0668L57.2518 17.9706L42.9199 31.496C37.108 37.3143 36.1818 46.514 40.7641 52.8696C43.5807 56.7938 49.1759 59.7029 54.0019 59.7029C58.2972 59.7029 62.4191 58.0095 65.3981 55.019L70.8471 49.7922L105.22 75.6219C105.052 75.7413 71.6487 100.838 71.6487 100.838C67.7326 103.888 62.2674 103.888 58.2701 100.779L25.2785 75.9855C20.6258 72.4848 14.8519 70.558 9.02921 70.558H5.41644C2.42115 70.558 0 72.9841 0 75.9855C0 78.987 2.42115 81.4131 5.41644 81.4131H9.02921C12.5228 81.4131 15.9839 82.5691 18.7788 84.6696L51.6945 109.408C55.6214 112.469 60.3283 114 65.0244 114C69.6933 114 74.3569 112.486 78.2242 109.468L111.227 84.675C114.016 82.5746 117.477 81.4185 120.971 81.4185H124.584C127.579 81.4185 130 78.9924 130 75.991C130 72.9895 127.579 70.5634 124.584 70.5634Z" fill="#373D52"/>
</svg>
