<svg width="223" height="48" fill="none" xmlns="http://www.w3.org/2000/svg"><path d="M221.5 17.825c-15.855-5.83-32.992-8.28-49.673-10.342-27.228-3.366-54.514-5.093-81.94-5.425-21.194-.257-42.66.19-63.501 4.508C22.168 7.44-5.027 12.951 2.96 22.36c3.584 4.222 9.542 6.744 14.483 8.686 12.673 4.98 26.299 7.588 39.698 9.577 20.177 2.996 40.587 4.365 60.958 4.993 19.941.615 40.17.864 59.95-2.19 7.094-1.096 43.182-6.52 33.123-21.677-4.748-7.156-14.207-11.378-21.864-14.214-8.508-3.15-16.989-3.987-25.844-5.298" stroke="#B9FF66" stroke-width="3" stroke-linecap="round"/></svg>