<svg width="16" height="16" fill="none" xmlns="http://www.w3.org/2000/svg"><path d="M12.313.5H3.687A3.16 3.16 0 00.5 3.625V5.5a.625.625 0 001.25 0V3.625A1.909 1.909 0 013.688 1.75h8.624a1.909 1.909 0 011.938 1.875v8.75a1.908 1.908 0 01-1.938 1.875H3.688a1.909 1.909 0 01-1.938-1.875V10.5a.625.625 0 00-1.25 0v1.875A3.16 3.16 0 003.688 15.5h8.624a3.16 3.16 0 003.188-3.125v-8.75A3.16 3.16 0 0012.312.5z" fill="#1D202C"/><path d="M2.375 8A.625.625 0 003 8.625l8.242-.019-2.701 2.702a.625.625 0 10.883.884l2.867-2.866a1.875 1.875 0 000-2.652L9.426 3.808a.625.625 0 00-.884.884l2.664 2.664L3 7.376A.625.625 0 002.375 8z" fill="#1D202C"/></svg>