<svg width="294" height="209" fill="none" xmlns="http://www.w3.org/2000/svg"><circle cx="27.991" cy="27.583" r="22.038" transform="rotate(-15 27.99 27.583)" fill="#0042FF"/><path d="M20.308 39.248c1.873-3.477 4.97-6.135 8.883-7.184 3.913-1.048 7.923-.294 11.284 1.78M31.68 21.19a5.22 5.22 0 11-10.083 2.702A5.22 5.22 0 0131.68 21.19z" stroke="#fff" stroke-width="2.32" stroke-linecap="round" stroke-linejoin="round"/><circle cx="214.608" cy="158.59" r="30.099" transform="rotate(-5 214.608 158.59)" fill="#0042FF"/><path d="M201.509 172.458c3.344-4.232 8.139-7.073 13.651-7.555 5.512-.482 10.727 1.483 14.755 5.07m-8.827-19.105a7.129 7.129 0 11-14.203 1.243 7.129 7.129 0 0114.203-1.243z" stroke="#fff" stroke-width="3.168" stroke-linecap="round" stroke-linejoin="round"/><circle cx="247.21" cy="48.288" r="36.114" transform="rotate(20 247.21 48.288)" fill="#0042FF"/><g clip-path="url(#clip0_11_2619)"><path d="M225.935 56.725c5.783-2.906 12.437-3.564 18.675-1.293 6.239 2.27 10.913 7.051 13.475 12.995m.089-25.252a8.553 8.553 0 11-16.075-5.851 8.553 8.553 0 0116.075 5.851z" stroke="#fff" stroke-width="3.801" stroke-linecap="round" stroke-linejoin="round"/></g><circle cx="38.748" cy="169.872" r="31.739" transform="rotate(15 38.748 169.872)" fill="#0042FF"/><g clip-path="url(#clip1_11_2619)"><path d="M20.767 178.89c4.84-2.988 10.615-4.074 16.251-2.563 5.636 1.51 10.095 5.338 12.793 10.345m-1.857-22.115a7.517 7.517 0 01-9.206 5.315 7.518 7.518 0 119.206-5.315z" stroke="#fff" stroke-width="3.341" stroke-linecap="round" stroke-linejoin="round"/></g><circle cx="122" cy="92" r="27" fill="#0042FF"/><path d="M109.211 103.369c3.319-3.521 7.825-5.685 12.789-5.685 4.964 0 9.47 2.164 12.79 5.685m-6.395-17.764a6.395 6.395 0 11-12.79 0 6.395 6.395 0 0112.79 0z" stroke="#fff" stroke-width="2.842" stroke-linecap="round" stroke-linejoin="round"/><defs><clipPath id="clip0_11_2619"><path fill="#fff" transform="rotate(20 62.761 671.873)" d="M0 0h45.617v45.617H0z"/></clipPath><clipPath id="clip1_11_2619"><path fill="#fff" transform="rotate(15 -539.628 165.987)" d="M0 0h40.091v40.091H0z"/></clipPath></defs></svg>