<svg width="197" height="47" fill="none" xmlns="http://www.w3.org/2000/svg"><path d="M194.91 15.36c-14.095-5.075-29.202-6.887-43.895-8.344-23.984-2.377-47.964-3.19-72.02-2.667-18.591.404-37.395 1.488-55.525 6.245-3.668.963-27.328 7.053-20.012 15.783 3.283 3.918 8.591 6.141 12.988 7.843 11.276 4.363 23.31 6.433 35.124 7.92 17.789 2.24 35.728 2.922 53.61 2.897 17.503-.024 35.247-.405 52.487-3.925 6.184-1.263 37.643-7.541 28.319-21.693C181.584 12.74 173.151 9 166.343 6.53c-7.564-2.745-15.028-3.284-22.835-4.262" stroke="#B9FF66" stroke-width="3" stroke-linecap="round"/></svg>