<svg width="335" height="371" fill="none" xmlns="http://www.w3.org/2000/svg"><g clip-path="url(#clip0_101_760)"><path fill-rule="evenodd" clip-rule="evenodd" d="M335 20c0-11.046-8.954-20-20-20H20C8.954 0 0 8.954 0 20v298c0 11.046 8.954 20 20 20h83.006c7.864 0 14.753 4.823 19.541 11.062C132.783 362.401 148.887 371 167 371c18.113 0 34.217-8.599 44.453-21.938C216.241 342.823 223.13 338 230.994 338H315c11.046 0 20-8.954 20-20V20z" fill="url(#paint0_linear_101_760)"/><path opacity=".1" transform="matrix(0 -1 -1 0 20 371)" stroke="url(#paint1_linear_101_760)" d="M0-.5h301"/><path opacity=".1" transform="matrix(0 -1 -1 0 56.875 371)" stroke="url(#paint2_linear_101_760)" d="M0-.5h301"/><path opacity=".1" transform="matrix(0 -1 -1 0 93.75 371)" stroke="url(#paint3_linear_101_760)" d="M0-.5h301"/><path opacity=".1" transform="matrix(0 -1 -1 0 130.625 371)" stroke="url(#paint4_linear_101_760)" d="M0-.5h301"/><path opacity=".1" transform="matrix(0 -1 -1 0 167.5 371)" stroke="url(#paint5_linear_101_760)" d="M0-.5h301"/><path opacity=".1" transform="matrix(0 -1 -1 0 204.375 371)" stroke="url(#paint6_linear_101_760)" d="M0-.5h301"/><path opacity=".1" transform="matrix(0 -1 -1 0 241.25 371)" stroke="url(#paint7_linear_101_760)" d="M0-.5h301"/><path opacity=".1" transform="matrix(0 -1 -1 0 278.125 371)" stroke="url(#paint8_linear_101_760)" d="M0-.5h301"/><path opacity=".1" transform="matrix(0 -1 -1 0 315 371)" stroke="url(#paint9_linear_101_760)" d="M0-.5h301"/><path d="M-12 329l32.546-18.069 19.527 6.023 18.025-25.598 20.028-2.509 17.024-25.096 19.027 5.019 17.524 17.567 20.028 5.521 17.024-19.073 21.03 6.525 16.022-20.076 18.526 4.517 18.025 31.621 20.028-46.679 17.024-6.524 18.526 4.015 18.526-10.54L345 198" stroke="#B9FF66" stroke-width="2"/><circle cx="57.5" cy="291.5" r="3.5" fill="#B9FF66" stroke="#0150ED" stroke-width="2"/><circle cx="168.5" cy="273.5" r="3.5" fill="#B9FF66" stroke="#015FF4" stroke-width="2"/><circle cx="278.5" cy="242.5" r="3.5" fill="#B9FF66" stroke="#016CFB" stroke-width="2"/><path fill-rule="evenodd" clip-rule="evenodd" d="M40 261a5 5 0 00-5 5v11a5 5 0 005 5h12.894l3.408 3.32a1 1 0 001.396 0l3.408-3.32H74a5 5 0 005-5v-11a5 5 0 00-5-5H40z" fill="#fff"/><path d="M45.574 273.72c0-.728.28-1.308.84-1.74a2.7 2.7 0 01.84-.384v-.072a2.198 2.198 0 01-.66-.396c-.44-.376-.66-.872-.66-1.488 0-.632.268-1.168.804-1.608.544-.448 1.276-.672 2.196-.672.92 0 1.648.224 2.184.672.544.44.816.976.816 1.608 0 .6-.22 1.096-.66 1.488-.208.168-.428.3-.66.396v.072c.304.08.584.212.84.396.56.432.84 1.008.84 1.728 0 .696-.304 1.292-.912 1.788-.6.488-1.416.732-2.448.732s-1.852-.244-2.46-.732c-.6-.496-.9-1.092-.9-1.788zm1.8-3.96c0 .352.136.64.408.864.272.224.656.336 1.152.336.496 0 .88-.112 1.152-.336.272-.224.408-.512.408-.864 0-.32-.14-.588-.42-.804-.272-.224-.652-.336-1.14-.336-.488 0-.872.112-1.152.336-.272.216-.408.484-.408.804zm.144 2.868c-.336.264-.504.588-.504.972s.168.712.504.984c.344.264.816.396 1.416.396s1.068-.132 1.404-.396c.344-.272.516-.6.516-.984s-.172-.708-.516-.972c-.336-.272-.804-.408-1.404-.408-.6 0-1.072.136-1.416.408zM53.129 276v-1.32l2.869-2.028c.623-.448 1.072-.864 1.344-1.248s.407-.792.407-1.224c0-.456-.14-.82-.42-1.092-.28-.272-.66-.408-1.14-.408-.592 0-1.035.24-1.331.72a2.422 2.422 0 00-.288.72h-1.44a3.71 3.71 0 01.467-1.38c.569-.92 1.432-1.38 2.593-1.38.888 0 1.608.264 2.16.792.56.52.84 1.176.84 1.968 0 .688-.176 1.308-.529 1.86-.352.544-.916 1.084-1.692 1.62l-1.2.84-.54.24v.06l.72-.06h3.24V276h-6.06zm7.599-5.136a1.936 1.936 0 01-.576-1.404c0-.544.192-1.008.576-1.392.392-.392.86-.588 1.404-.588.544 0 1.008.196 1.392.588.392.384.588.848.588 1.392 0 .544-.196 1.012-.588 1.404a1.896 1.896 0 01-1.392.576 1.936 1.936 0 01-1.404-.576zm.444 5.136l5.04-8.4h1.2l-5.04 8.4h-1.2zm.276-7.272c-.184.184-.276.428-.276.732s.092.552.276.744a.929.929 0 00.684.276c.272 0 .5-.092.684-.276.184-.192.276-.44.276-.744s-.092-.548-.276-.732a.91.91 0 00-.684-.288.91.91 0 00-.684.288zm3.6 6.816a1.936 1.936 0 01-.576-1.404c0-.544.192-1.008.576-1.392.392-.392.86-.588 1.404-.588.544 0 1.008.196 1.392.588.392.384.588.848.588 1.392 0 .544-.196 1.012-.588 1.404a1.896 1.896 0 01-1.392.576 1.936 1.936 0 01-1.404-.576zm.72-2.136c-.184.184-.276.428-.276.732s.092.552.276.744a.929.929 0 00.684.276c.272 0 .5-.092.684-.276.184-.192.276-.44.276-.744s-.092-.548-.276-.732a.91.91 0 00-.684-.288.91.91 0 00-.684.288z" fill="#1D202C"/><path fill-rule="evenodd" clip-rule="evenodd" d="M151 244a5 5 0 00-5 5v11a5 5 0 005 5h12.894l3.408 3.32a1.001 1.001 0 001.396 0l3.408-3.32H185a5 5 0 005-5v-11a5 5 0 00-5-5h-34z" fill="#fff"/><path d="M153.57 253.36v-1.56l1.56-1.2h1.26v8.4h-1.38v-6.72l-1.44 1.08zm5.34 4.632c-.76-.832-1.14-1.896-1.14-3.192 0-1.296.38-2.36 1.14-3.192.76-.832 1.68-1.248 2.76-1.248 1.08 0 2 .416 2.76 1.248.76.832 1.14 1.896 1.14 3.192 0 1.296-.38 2.36-1.14 3.192-.76.832-1.68 1.248-2.76 1.248-1.08 0-2-.416-2.76-1.248zm.984-5.496c-.456.544-.684 1.312-.684 2.304 0 .992.228 1.76.684 2.304a2.23 2.23 0 001.776.816c.72 0 1.308-.272 1.764-.816.464-.544.696-1.312.696-2.304 0-.992-.232-1.76-.696-2.304-.456-.544-1.044-.816-1.764-.816a2.23 2.23 0 00-1.776.816zm6.699 4.164h1.44c.064.248.172.46.324.636.352.416.864.624 1.536.624.536 0 .96-.144 1.272-.432.312-.288.468-.664.468-1.128 0-.488-.156-.88-.468-1.176-.312-.296-.736-.444-1.272-.444-.496 0-.916.132-1.26.396a1.654 1.654 0 00-.36.384h-1.32l.36-4.92h5.1v1.32h-3.96l-.18 2.16h.06c.128-.128.276-.236.444-.324.376-.224.828-.336 1.356-.336.84 0 1.54.28 2.1.84.56.56.84 1.26.84 2.1 0 .824-.296 1.512-.888 2.064-.584.544-1.348.816-2.292.816-1.232 0-2.148-.428-2.748-1.284a3.781 3.781 0 01-.552-1.296zm7.959-2.796a1.936 1.936 0 01-.576-1.404c0-.544.192-1.008.576-1.392.392-.392.86-.588 1.404-.588.544 0 1.008.196 1.392.588.392.384.588.848.588 1.392 0 .544-.196 1.012-.588 1.404a1.896 1.896 0 01-1.392.576 1.936 1.936 0 01-1.404-.576zm.444 5.136l5.04-8.4h1.2l-5.04 8.4h-1.2zm.276-7.272c-.184.184-.276.428-.276.732s.092.552.276.744a.929.929 0 00.684.276c.272 0 .5-.092.684-.276.184-.192.276-.44.276-.744s-.092-.548-.276-.732a.91.91 0 00-.684-.288.91.91 0 00-.684.288zm3.6 6.816a1.936 1.936 0 01-.576-1.404c0-.544.192-1.008.576-1.392.392-.392.86-.588 1.404-.588.544 0 1.008.196 1.392.588.392.384.588.848.588 1.392 0 .544-.196 1.012-.588 1.404a1.896 1.896 0 01-1.392.576 1.936 1.936 0 01-1.404-.576zm.72-2.136c-.184.184-.276.428-.276.732s.092.552.276.744a.929.929 0 00.684.276c.272 0 .5-.092.684-.276.184-.192.276-.44.276-.744s-.092-.548-.276-.732a.91.91 0 00-.684-.288.91.91 0 00-.684.288z" fill="#1D202C"/><path fill-rule="evenodd" clip-rule="evenodd" d="M261 213a5 5 0 00-5 5v11a5 5 0 005 5h12.894l3.408 3.32a1.001 1.001 0 001.396 0l3.408-3.32H295a5 5 0 005-5v-11a5 5 0 00-5-5h-34z" fill="#fff"/><path d="M264.732 222.36v-1.56l1.56-1.2h1.26v8.4h-1.38v-6.72l-1.44 1.08zm4.021 3.24h1.44c.056.248.164.468.324.66.36.44.872.66 1.536.66.552 0 .988-.136 1.308-.408.328-.28.492-.624.492-1.032 0-.464-.148-.828-.444-1.092-.288-.272-.7-.408-1.236-.408h-2.04v-1.2l2.52-1.8v-.06h-3.48v-1.32h5.52v1.308l-2.16 1.572-.6.24v.06l.192-.024c.264-.024.42-.036.468-.036.752 0 1.38.26 1.884.78s.756 1.18.756 1.98c0 .768-.296 1.42-.888 1.956-.592.536-1.356.804-2.292.804-1.24 0-2.156-.44-2.748-1.32a3.775 3.775 0 01-.552-1.32zm7.385.12c0-.728.28-1.308.84-1.74a2.7 2.7 0 01.84-.384v-.072a2.198 2.198 0 01-.66-.396c-.44-.376-.66-.872-.66-1.488 0-.632.268-1.168.804-1.608.544-.448 1.276-.672 2.196-.672.92 0 1.648.224 2.184.672.544.44.816.976.816 1.608 0 .6-.22 1.096-.66 1.488-.208.168-.428.3-.66.396v.072c.304.08.584.212.84.396.56.432.84 1.008.84 1.728 0 .696-.304 1.292-.912 1.788-.6.488-1.416.732-2.448.732s-1.852-.244-2.46-.732c-.6-.496-.9-1.092-.9-1.788zm1.8-3.96c0 .352.136.64.408.864.272.224.656.336 1.152.336.496 0 .88-.112 1.152-.336.272-.224.408-.512.408-.864 0-.32-.14-.588-.42-.804-.272-.224-.652-.336-1.14-.336-.488 0-.872.112-1.152.336-.272.216-.408.484-.408.804zm.144 2.868c-.336.264-.504.588-.504.972s.168.712.504.984c.344.264.816.396 1.416.396s1.068-.132 1.404-.396c.344-.272.516-.6.516-.984s-.172-.708-.516-.972c-.336-.272-.804-.408-1.404-.408-.6 0-1.072.136-1.416.408zm6.308-1.764a1.936 1.936 0 01-.576-1.404c0-.544.192-1.008.576-1.392.392-.392.86-.588 1.404-.588.544 0 1.008.196 1.392.588.392.384.588.848.588 1.392 0 .544-.196 1.012-.588 1.404a1.896 1.896 0 01-1.392.576 1.936 1.936 0 01-1.404-.576zm.444 5.136l5.04-8.4h1.2l-5.04 8.4h-1.2zm.276-7.272c-.184.184-.276.428-.276.732s.092.552.276.744a.929.929 0 00.684.276c.272 0 .5-.092.684-.276.184-.192.276-.44.276-.744s-.092-.548-.276-.732a.91.91 0 00-.684-.288.91.91 0 00-.684.288zm3.6 6.816a1.936 1.936 0 01-.576-1.404c0-.544.192-1.008.576-1.392.392-.392.86-.588 1.404-.588.544 0 1.008.196 1.392.588.392.384.588.848.588 1.392 0 .544-.196 1.012-.588 1.404a1.896 1.896 0 01-1.392.576 1.936 1.936 0 01-1.404-.576zm.72-2.136c-.184.184-.276.428-.276.732s.092.552.276.744a.929.929 0 00.684.276c.272 0 .5-.092.684-.276.184-.192.276-.44.276-.744s-.092-.548-.276-.732a.91.91 0 00-.684-.288.91.91 0 00-.684.288z" fill="#1D202C"/><path d="M199 315c4.418 0 8.081 3.617 7.203 7.947A40.004 40.004 0 01167 355a40.004 40.004 0 01-39.203-32.053c-.878-4.33 2.785-7.947 7.203-7.947h64z" fill="#B9FF66"/><mask id="a" style="mask-type:alpha" maskUnits="userSpaceOnUse" x="127" y="315" width="80" height="40"><path d="M199 315c4.418 0 8.081 3.617 7.203 7.947A40.004 40.004 0 01167 355a40.004 40.004 0 01-39.203-32.053c-.878-4.33 2.785-7.947 7.203-7.947h64z" fill="#B9FF66"/></mask><g mask="url(#a)" fill="#97DD45"><path d="M191.086 358.038c-2.118-1.223-4.878-.407-6.165 1.823a16.267 16.267 0 01-3.025 3.799c-5.056 4.682-12.359 5.57-18.173 2.213-7.331-4.232-9.749-13.815-5.391-21.363 4.358-7.548 13.867-10.246 21.197-6.014 3.824 2.208 6.485 6.007 7.302 10.428.458 2.476 2.803 4.012 5.24 3.431 2.436-.579 4.04-3.056 3.581-5.533-1.286-6.96-5.465-12.938-11.461-16.4-5.163-2.98-11.018-3.764-16.535-2.652l14.414-24.966c1.349-2.336.643-5.268-1.576-6.549-2.219-1.281-5.11-.427-6.459 1.91-4.542 7.867-9.42 15.634-13.664 23.664-3.521 6.662-8.074 12.846-10.716 19.989-2.631 7.11-3.296 14.971-.114 21.74 2.058 4.377 5.399 8.01 9.519 10.389 9.146 5.28 20.672 3.843 28.682-3.576a26.004 26.004 0 004.846-6.082c1.288-2.229.616-5.028-1.502-6.251zm-36.843-46.887c1.132 1.735 1.404 3.974 1.108 6.094-.294 2.119-1.113 4.146-2.029 6.097a60.296 60.296 0 01-5.599 9.531c-.252.351-.653.746-1.027.575-.256-.117-.335-.442-.385-.73-.922-5.341-1.406-10.783-1.38-16.249.008-1.606.07-3.26.702-4.758 1.707-4.045 6.501-3.795 8.61-.56z"/></g></g><defs><linearGradient id="paint0_linear_101_760" x1="0" y1="194.793" x2="229.195" y2="382.775" gradientUnits="userSpaceOnUse"><stop stop-color="#0039E2"/><stop offset="1" stop-color="#0075FF"/></linearGradient><linearGradient id="paint1_linear_101_760" x1="0" y1="0" x2="301" y2="0" gradientUnits="userSpaceOnUse"><stop stop-color="#fff"/><stop offset=".63" stop-color="#fff" stop-opacity="0"/></linearGradient><linearGradient id="paint2_linear_101_760" x1="0" y1="0" x2="301" y2="0" gradientUnits="userSpaceOnUse"><stop stop-color="#fff"/><stop offset=".63" stop-color="#fff" stop-opacity="0"/></linearGradient><linearGradient id="paint3_linear_101_760" x1="0" y1="0" x2="301" y2="0" gradientUnits="userSpaceOnUse"><stop stop-color="#fff"/><stop offset=".63" stop-color="#fff" stop-opacity="0"/></linearGradient><linearGradient id="paint4_linear_101_760" x1="0" y1="0" x2="301" y2="0" gradientUnits="userSpaceOnUse"><stop stop-color="#fff"/><stop offset=".63" stop-color="#fff" stop-opacity="0"/></linearGradient><linearGradient id="paint5_linear_101_760" x1="0" y1="0" x2="301" y2="0" gradientUnits="userSpaceOnUse"><stop stop-color="#fff"/><stop offset=".63" stop-color="#fff" stop-opacity="0"/></linearGradient><linearGradient id="paint6_linear_101_760" x1="0" y1="0" x2="301" y2="0" gradientUnits="userSpaceOnUse"><stop stop-color="#fff"/><stop offset=".63" stop-color="#fff" stop-opacity="0"/></linearGradient><linearGradient id="paint7_linear_101_760" x1="0" y1="0" x2="301" y2="0" gradientUnits="userSpaceOnUse"><stop stop-color="#fff"/><stop offset=".63" stop-color="#fff" stop-opacity="0"/></linearGradient><linearGradient id="paint8_linear_101_760" x1="0" y1="0" x2="301" y2="0" gradientUnits="userSpaceOnUse"><stop stop-color="#fff"/><stop offset=".63" stop-color="#fff" stop-opacity="0"/></linearGradient><linearGradient id="paint9_linear_101_760" x1="0" y1="0" x2="301" y2="0" gradientUnits="userSpaceOnUse"><stop stop-color="#fff"/><stop offset=".63" stop-color="#fff" stop-opacity="0"/></linearGradient><clipPath id="clip0_101_760"><rect width="335" height="371" rx="20" fill="#fff"/></clipPath></defs></svg>