<svg width="71" height="40" fill="none" xmlns="http://www.w3.org/2000/svg"><g clip-path="url(#clip0_302_106)"><path d="M5.714 6.431A7.994 7.994 0 0113.552 0h43.895a7.994 7.994 0 017.84 6.431l4.8 24c.99 4.95-2.79 9.569-7.839 9.569H8.752C3.704 40-.076 35.381.914 30.431l4.8-24z" fill="#C67EFF"/><mask id="a" style="mask-type:alpha" maskUnits="userSpaceOnUse" x="0" y="0" width="71" height="40"><path d="M5.714 6.431A7.994 7.994 0 0113.552 0h43.895a7.994 7.994 0 017.84 6.431l4.8 24c.99 4.95-2.79 9.569-7.839 9.569H8.752C3.704 40-.076 35.381.914 30.431l4.8-24z" fill="#0042FF"/></mask><g mask="url(#a)"><path d="M17.231 55.798c-6.422 0-11.38-1.824-14.877-5.472-3.458-3.648-5.187-9.481-5.187-17.499 0-8.018 1.73-13.851 5.187-17.499C5.85 11.68 10.81 9.856 17.231 9.856c6.422 0 11.362 1.824 14.82 5.472 3.496 3.648 5.244 9.481 5.244 17.499 0 7.41-1.615 13.091-4.845 17.043-3.192 3.952-8.265 5.928-15.219 5.928zm0-10.146c2.584 0 3.876-1.406 3.876-4.218V24.22c0-2.812-1.292-4.218-3.876-4.218-2.584 0-3.876 1.406-3.876 4.218v17.214c0 2.812 1.292 4.218 3.876 4.218zM65.82 32.371c1.178.304 2.3.931 3.363 1.881 1.102.912 1.995 2.071 2.68 3.477.721 1.406 1.082 2.964 1.082 4.674 0 4.18-1.5 7.467-4.503 9.861-2.964 2.356-7.372 3.534-13.224 3.534-2.774 0-5.548-.304-8.322-.912-2.774-.646-5.244-1.425-7.41-2.337V40.408a48.613 48.613 0 007.296 2.508c2.546.646 4.96.969 7.24.969 1.595 0 2.754-.247 3.476-.741.76-.494 1.14-1.311 1.14-2.451 0-2.204-1.33-3.306-3.99-3.306h-4.104v-9.348h3.192c2.508 0 3.762-1.064 3.762-3.192 0-2.052-1.254-3.078-3.762-3.078-1.824 0-3.724.437-5.7 1.311-1.976.836-3.895 1.938-5.757 3.306l-3.363-12.141c2.318-1.216 4.96-2.242 7.923-3.078a31.494 31.494 0 018.95-1.311c5.243 0 9.271 1.102 12.083 3.306 2.812 2.204 4.218 5.32 4.218 9.348 0 2.508-.589 4.579-1.767 6.213a11.414 11.414 0 01-4.503 3.648z" fill="url(#paint0_linear_302_106)"/></g></g><defs><linearGradient id="paint0_linear_302_106" x1="35" y1="10" x2="35" y2="57" gradientUnits="userSpaceOnUse"><stop stop-color="#fff"/><stop offset="1" stop-color="#fff" stop-opacity="0"/></linearGradient><clipPath id="clip0_302_106"><path fill="#fff" d="M0 0h71v40H0z"/></clipPath></defs></svg>