<svg width="71" height="40" fill="none" xmlns="http://www.w3.org/2000/svg"><g clip-path="url(#clip0_302_104)"><path d="M5.714 6.431A7.994 7.994 0 0113.552 0h43.895a7.994 7.994 0 017.84 6.431l4.8 24c.99 4.95-2.79 9.569-7.839 9.569H8.752C3.704 40-.076 35.381.914 30.431l4.8-24z" fill="#B9FF66"/><mask id="a" style="mask-type:alpha" maskUnits="userSpaceOnUse" x="0" y="0" width="71" height="40"><path d="M5.714 6.431A7.994 7.994 0 0113.552 0h43.895a7.994 7.994 0 017.84 6.431l4.8 24c.99 4.95-2.79 9.569-7.839 9.569H8.752C3.704 40-.076 35.381.914 30.431l4.8-24z" fill="#0042FF"/></mask><g mask="url(#a)"><path d="M16.98 55.798c-6.422 0-11.381-1.824-14.877-5.472-3.458-3.648-5.187-9.481-5.187-17.499 0-8.018 1.729-13.851 5.187-17.499 3.496-3.648 8.455-5.472 14.877-5.472 6.422 0 11.362 1.824 14.82 5.472 3.496 3.648 5.244 9.481 5.244 17.499 0 7.41-1.615 13.091-4.845 17.043-3.192 3.952-8.265 5.928-15.22 5.928zm0-10.146c2.584 0 3.876-1.406 3.876-4.218V24.22c0-2.812-1.292-4.218-3.876-4.218-2.584 0-3.876 1.406-3.876 4.218v17.214c0 2.812 1.292 4.218 3.876 4.218zm21.57 4.446c0-3.268.475-6.156 1.425-8.664.988-2.508 2.584-4.864 4.788-7.068 2.204-2.242 5.244-4.56 9.12-6.954 1.14-.722 1.938-1.33 2.394-1.824a2.673 2.673 0 00.74-1.881c0-1.558-1.12-2.337-3.362-2.337-1.672 0-3.591.437-5.757 1.311-2.166.874-4.123 1.976-5.871 3.306l-3.363-12.141c2.432-1.216 5.225-2.242 8.379-3.078a35.496 35.496 0 019.519-1.311c5.244 0 9.31 1.159 12.198 3.477 2.888 2.318 4.332 5.605 4.332 9.861 0 2.28-.513 4.294-1.54 6.042-.987 1.71-2.203 3.154-3.647 4.332-1.406 1.178-3.25 2.527-5.53 4.047-2.545 1.672-4.426 3.116-5.642 4.332-1.178 1.178-1.767 2.546-1.767 4.104h6.897v-3.249h11.685V55H38.55v-4.902z" fill="url(#paint0_linear_302_104)"/></g></g><defs><linearGradient id="paint0_linear_302_104" x1="35.5" y1="10" x2="35.5" y2="57" gradientUnits="userSpaceOnUse"><stop stop-color="#fff"/><stop offset="1" stop-color="#fff" stop-opacity="0"/></linearGradient><clipPath id="clip0_302_104"><path fill="#fff" d="M0 0h71v40H0z"/></clipPath></defs></svg>