<svg width="22" height="22" fill="none" xmlns="http://www.w3.org/2000/svg"><path d="M7.682 8.116a13.386 13.386 0 002.61 3.675 13.386 13.386 0 003.675 2.61c.114.054.171.082.243.103a.96.96 0 00.79-.135c.062-.044.114-.096.22-.201.32-.32.48-.48.641-.585a1.833 1.833 0 011.999 0c.16.104.321.265.642.585l.178.179c.487.487.73.73.863.992.263.52.263 1.135 0 1.655-.132.262-.376.505-.863.992l-.144.145c-.486.485-.729.728-1.059.913a3.097 3.097 0 01-1.355.353c-.378-.001-.637-.075-1.154-.222a17.452 17.452 0 01-7.594-4.467 17.452 17.452 0 01-4.467-7.593c-.147-.518-.22-.776-.221-1.155a3.08 3.08 0 01.352-1.355c.185-.33.428-.573.914-1.058l.144-.145c.487-.487.73-.73.992-.863a1.833 1.833 0 011.655 0c.262.132.506.376.993.863l.178.179c.32.32.481.48.586.642a1.833 1.833 0 010 1.998c-.105.161-.265.322-.586.642a1.852 1.852 0 00-.2.219.959.959 0 00-.135.79c.02.072.048.13.103.244z" stroke="#A2A9B4" stroke-width="1.6" stroke-linecap="round" stroke-linejoin="round"/></svg>