<svg width="176" height="49" fill="none" xmlns="http://www.w3.org/2000/svg"><path d="M174.142 17.061c-12.489-5.7-25.92-7.953-38.987-9.818-21.33-3.045-42.676-4.426-64.107-4.39-16.561.029-33.321.775-49.527 5.442-3.28.945-24.426 6.909-18.02 16.348 2.875 4.236 7.574 6.714 11.468 8.618 9.988 4.883 20.679 7.343 31.182 9.18 15.814 2.765 31.782 3.875 47.708 4.235 15.588.352 31.396.33 46.793-3.04 5.523-1.21 33.618-7.206 25.492-22.453-3.836-7.197-11.3-11.353-17.332-14.127-6.702-3.082-13.342-3.816-20.283-5.025" stroke="#B9FF66" stroke-width="3" stroke-linecap="round"/></svg>