<svg width="137" height="102" fill="none" xmlns="http://www.w3.org/2000/svg"><path d="M129.648 91.081l-3.658-1.404a28.63 28.63 0 00-4.207-1.254L94.317 44.465l12.677-5.353c2.997-1.265 4.415-4.73 3.162-7.728-1.257-3.005-4.707-4.412-7.69-3.148L71.126 41.47a5.795 5.795 0 01-4.936-.06c-1.583-.76-2.7-2.144-3.154-3.899-.698-2.67 1.021-5.773 3.744-6.998l35.165-14.51c6.658-2.736 14.732-.934 19.553 4.376l10.252 11.259a29.414 29.414 0 0011.144 7.61l5.792 2.223c3.033 1.164 6.43-.358 7.6-3.406s-.336-6.453-3.369-7.617l-5.792-2.223a17.669 17.669 0 01-6.692-4.567l-10.241-11.255C122.119 3.53 108.628.495 97.5 5.09l-4.62 1.907-2.49-4.99c-3.27-6.549-8.82-11.595-15.847-14.292a29.304 29.304 0 00-13.325-1.796L46.076-12.57a17.707 17.707 0 01-8.034-1.086l-5.781-2.219c-3.033-1.164-6.43.358-7.6 3.406s.336 6.453 3.369 7.617l5.791 2.223a29.533 29.533 0 0013.38 1.803l15.152-1.506c6.693-.681 14.275 3.108 17.528 9.65l2.087 4.184-19.784 8.164c-8.153 3.65-12.677 12.632-10.515 20.867 1.323 5.08 5.854 10.209 10.741 12.084 4.35 1.67 9.184 1.553 13.366-.326l7.555-3.19 24.737 39.59c-.216.056-43.823 12.558-43.823 12.558-5.155 1.575-10.689-.549-13.524-5.261l-23.743-38a29.445 29.445 0 00-14.339-11.829l-3.658-1.404c-3.033-1.164-6.43.358-7.6 3.406s.336 6.453 3.369 7.617l3.658 1.404a17.675 17.675 0 018.603 7.097l23.687 37.916a23.443 23.443 0 0011.708 9.844 23.2 23.2 0 0015.133.529l43.083-12.349a17.645 17.645 0 0111.136.481l3.659 1.404c3.033 1.165 6.43-.358 7.6-3.406s-.336-6.452-3.369-7.617z" fill="#232533"/></svg>