<svg width="95" height="95" fill="none" xmlns="http://www.w3.org/2000/svg"><g clip-path="url(#clip0_105_215)"><path d="M47.982 0c-.315 0-.63.019-.946.093C31.172 3.154 21.45 18.98 24.214 35.124a30.156 30.156 0 002.95 8.795L5.937 41.563h-.482A5.464 5.464 0 000 47.017c0 .315.019.63.093.946C3.154 63.828 18.98 73.55 35.124 70.786a30.156 30.156 0 008.795-2.95l-2.356 21.227v.482A5.464 5.464 0 0047.017 95c.315 0 .63-.019.946-.093C63.828 91.846 73.55 76.02 70.786 59.876a30.156 30.156 0 00-2.95-8.795l21.227 2.356h.482A5.464 5.464 0 0095 47.983c0-.315-.019-.63-.093-.946C91.846 31.172 76.02 21.45 59.876 24.214a30.156 30.156 0 00-8.795 2.95l2.356-21.227v-.482A5.464 5.464 0 0047.983 0zM47.5 53.438a5.931 5.931 0 01-5.938-5.938 5.931 5.931 0 015.938-5.938 5.931 5.931 0 015.938 5.938 5.931 5.931 0 01-5.938 5.938z" fill="#0042FF"/></g><defs><clipPath id="clip0_105_215"><path fill="#fff" d="M0 0h95v95H0z"/></clipPath></defs></svg>