<svg width="215" height="47" fill="none" xmlns="http://www.w3.org/2000/svg"><path d="M213.238 15.78c-15.303-5.43-31.779-7.537-47.81-9.273-26.168-2.834-52.363-4.064-78.669-3.93-20.328.104-40.904.9-60.817 5.468-4.03.925-30.014 6.765-22.195 15.824 3.509 4.065 9.266 6.43 14.037 8.245 12.237 4.655 25.348 6.974 38.232 8.693 19.399 2.59 38.994 3.586 58.54 3.858 19.133.267 38.536.172 57.451-3.144 6.785-1.189 41.299-7.093 31.394-21.735-4.675-6.912-13.818-10.88-21.209-13.522-8.212-2.936-16.359-3.612-24.873-4.744" stroke="#B9FF66" stroke-width="3" stroke-linecap="round"/></svg>