<svg width="19" height="16" fill="none" xmlns="http://www.w3.org/2000/svg"><path fill-rule="evenodd" clip-rule="evenodd" d="M7.25 1.75a3 3 0 100 6 3 3 0 000-6zm-4.5 3a4.5 4.5 0 119 0 4.5 4.5 0 01-9 0zm9.245-3.694A.75.75 0 0113 .718a4.5 4.5 0 010 8.064.75.75 0 01-.667-1.343 3 3 0 000-5.378.75.75 0 01-.338-1.005zM7.25 12.583c-2.147 0-4.147 1.121-5.66 3.047a.75.75 0 01-1.18-.927c1.731-2.203 4.135-3.62 6.84-3.62s5.109 1.417 6.84 3.62a.75.75 0 11-1.18.927c-1.513-1.926-3.513-3.047-5.66-3.047zm6.4-.42a.75.75 0 01.992-.374c1.385.626 2.611 1.638 3.614 2.914a.75.75 0 01-1.18.927c-.875-1.115-1.917-1.961-3.052-2.475a.75.75 0 01-.374-.992z" fill="#fff"/></svg>