<svg width="19" height="20" fill="none" xmlns="http://www.w3.org/2000/svg"><path fill-rule="evenodd" clip-rule="evenodd" d="M4.697 2.503a1.033 1.033 0 00-.933 0c-.119.06-.256.183-.788.715l-.144.145c-.51.51-.662.67-.782.884l-.698-.392.698.392a2.33 2.33 0 00-.25.96L1 5.21l.8-.002c0 .251.04.407.191.938a16.652 16.652 0 004.263 7.247 16.653 16.653 0 007.247 4.263c.531.15.687.19.938.191.282 0 .715-.112.961-.25.214-.12.374-.272.884-.782l.145-.144c.532-.532.655-.67.715-.788.148-.293.148-.64 0-.933-.06-.118-.183-.256-.715-.787l-.179-.18c-.35-.348-.439-.432-.512-.48a1.033 1.033 0 00-1.127 0c-.073.048-.162.132-.512.48a4.168 4.168 0 00-.02.022c-.084.083-.181.181-.298.265l-.407-.568.407.568a1.758 1.758 0 01-1.48.252 2.178 2.178 0 01-.366-.15 14.184 14.184 0 01-3.895-2.765 14.184 14.184 0 01-2.765-3.895l.721-.346-.72.346-.011-.021a2.17 2.17 0 01-.14-.345l.768-.224-.768.224a1.758 1.758 0 01.252-1.48 2.38 2.38 0 01.265-.297l.021-.021c.35-.35.433-.44.48-.513a1.033 1.033 0 000-1.126c-.047-.073-.13-.163-.48-.512l-.179-.179c-.531-.532-.669-.655-.787-.715zM3.042 1.075a2.633 2.633 0 012.377 0c.379.192.71.524 1.114.929l.083.083.178.178.055.055c.267.266.484.483.636.717l-.607.395.607-.395a2.633 2.633 0 010 2.87c-.152.234-.37.451-.636.718a91.97 91.97 0 00-.171.174.185.185 0 00-.017.1 12.586 12.586 0 002.51 3.578 12.584 12.584 0 003.457 2.452l-.347.722.346-.722a3.7 3.7 0 00.122.057.193.193 0 00.1-.017 5.848 5.848 0 00.12-.117l.053-.054c.267-.267.484-.484.717-.636a2.633 2.633 0 012.871 0c.234.152.45.37.717.636l.055.055.178.178.083.083c.405.404.737.735.928 1.114.378.747.378 1.63 0 2.377-.191.38-.523.71-.928 1.114l-.083.083-.144.145-.057.057c-.432.431-.748.748-1.175.988a3.886 3.886 0 01-1.75.455c-.49-.002-.844-.102-1.323-.238l-.047-.014a18.252 18.252 0 01-7.941-4.671 18.253 18.253 0 01-4.671-7.94l-.014-.048C.302 6.057.201 5.702.2 5.213a3.886 3.886 0 01.455-1.75c.24-.427.557-.743.988-1.175l.057-.057.145-.144.082-.083c.405-.405.736-.737 1.115-.929l.36.714-.36-.714z" fill="#A2A9B4"/></svg>